<svg width="2384" height="1312" viewBox="0 0 2384 1312" fill="none" xmlns="http://www.w3.org/2000/svg">
<rect width="2384" height="1312" fill="white"/>
<path d="M216 802L206 797.226L206 808.774L216 804L216 802ZM2191 803L2181 797.227L2181 808.774L2191 803ZM215 803L215 804L2182 804L2182 803L2182 802L215 802L215 803Z" fill="black"/>
<path d="M410.84 216.28V245H405.72V216.28H410.84ZM423.987 245.44C418.107 245.44 414.747 240.48 414.747 234.52C414.747 228.56 418.107 223.6 423.987 223.6C426.707 223.6 428.707 224.68 430.027 226.24V216.28H434.827V245H430.027V242.8C428.707 244.36 426.707 245.44 423.987 245.44ZM430.147 233.92C430.147 229.96 427.907 227.8 424.947 227.8C421.467 227.8 419.587 230.52 419.587 234.52C419.587 238.52 421.467 241.24 424.947 241.24C427.907 241.24 430.147 239.04 430.147 235.16V233.92ZM448.736 245.44C442.736 245.44 438.536 241 438.536 234.52C438.536 228.36 442.696 223.6 448.536 223.6C454.616 223.6 457.856 228.2 457.856 233.96V235.56H443.136C443.496 239.16 445.656 241.36 448.736 241.36C451.096 241.36 452.976 240.16 453.616 238L457.736 239.56C456.256 243.24 452.936 245.44 448.736 245.44ZM448.496 227.64C446.016 227.64 444.096 229.12 443.376 231.96H453.016C452.976 229.64 451.536 227.64 448.496 227.64ZM461.458 245V224H466.258V226.24C467.458 224.84 469.338 223.6 472.058 223.6C476.458 223.6 479.098 226.64 479.098 231.16V245H474.298V232.56C474.298 229.96 473.258 228.08 470.618 228.08C468.458 228.08 466.258 229.68 466.258 232.68V245H461.458ZM484.437 239.72V228.08H481.517V224H484.437V217.84H489.157V224H493.557V228.08H489.157V238.96C489.157 240.84 490.237 241.04 491.957 241.04C492.757 241.04 493.197 241 493.917 240.92V244.96C493.037 245.12 491.837 245.24 490.597 245.24C486.597 245.24 484.437 244 484.437 239.72ZM499.912 221.48C498.272 221.48 497.112 220.36 497.112 218.72C497.112 217.08 498.272 215.96 499.912 215.96C501.552 215.96 502.712 217.08 502.712 218.72C502.712 220.36 501.552 221.48 499.912 221.48ZM502.312 224V245H497.512V224H502.312ZM517.076 215.88V220.08C516.516 220.04 516.236 220.04 515.636 220.04C513.756 220.04 512.716 220.6 512.716 223V224H516.996V228.08H512.716V245H507.916V228.08H504.996V224H507.916V222.64C507.916 218.28 510.356 215.84 515.076 215.84C515.836 215.84 516.196 215.84 517.076 215.88ZM529.64 246.96C528.44 250.16 526.6 252.36 522.24 252.36C521.24 252.36 520.96 252.32 520.28 252.24V248.2C520.92 248.28 521.28 248.32 521.88 248.32C523.48 248.32 524.24 247.88 524.92 246.2L525.72 244.24L518.08 224H523.12L528.28 238.72L533.32 224H538.28L529.64 246.96ZM552.594 234.52C552.594 238.8 554.834 241.28 558.114 241.28C560.674 241.28 562.234 239.6 562.834 237.28L566.954 239.36C565.874 242.76 562.674 245.44 558.114 245.44C552.114 245.44 547.794 241 547.794 234.52C547.794 228.04 552.114 223.6 558.114 223.6C562.634 223.6 565.754 226.16 566.874 229.52L562.834 231.72C562.234 229.44 560.674 227.72 558.114 227.72C554.834 227.72 552.594 230.24 552.594 234.52ZM588.776 234.52C588.776 241.04 584.576 245.44 578.656 245.44C572.736 245.44 568.536 241.04 568.536 234.52C568.536 228 572.736 223.6 578.656 223.6C584.576 223.6 588.776 228 588.776 234.52ZM573.376 234.52C573.376 238.8 575.416 241.4 578.656 241.4C581.896 241.4 583.936 238.8 583.936 234.52C583.936 230.24 581.896 227.64 578.656 227.64C575.416 227.64 573.376 230.24 573.376 234.52ZM597.312 232.68V245H592.512V224H597.312V226.24C598.472 224.84 600.272 223.6 603.072 223.6C605.592 223.6 607.472 224.72 608.632 226.52C609.912 225.16 611.912 223.6 615.152 223.6C619.472 223.6 622.272 226.64 622.272 231.16V245H617.472V232.56C617.472 229.96 616.512 228.08 613.952 228.08C611.912 228.08 609.792 229.68 609.792 232.68V245H604.992V232.56C604.992 229.96 604.032 228.08 601.472 228.08C599.432 228.08 597.312 229.68 597.312 232.68ZM631.961 232.68V245H627.161V224H631.961V226.24C633.121 224.84 634.921 223.6 637.721 223.6C640.241 223.6 642.121 224.72 643.281 226.52C644.561 225.16 646.561 223.6 649.801 223.6C654.121 223.6 656.921 226.64 656.921 231.16V245H652.121V232.56C652.121 229.96 651.161 228.08 648.601 228.08C646.561 228.08 644.441 229.68 644.441 232.68V245H639.641V232.56C639.641 229.96 638.681 228.08 636.121 228.08C634.081 228.08 631.961 229.68 631.961 232.68ZM659.609 241L663.209 238.12C664.449 240.16 666.849 241.52 669.289 241.52C671.329 241.52 673.209 240.8 673.209 238.92C673.209 237.12 671.449 236.92 668.129 236.24C664.809 235.56 661.009 234.72 661.009 230.24C661.009 226.4 664.369 223.6 669.209 223.6C672.889 223.6 676.169 225.24 677.689 227.56L674.449 230.48C673.249 228.6 671.249 227.52 668.929 227.52C666.969 227.52 665.689 228.4 665.689 229.8C665.689 231.32 667.209 231.6 669.849 232.16C673.409 232.92 677.889 233.68 677.889 238.48C677.889 242.72 674.009 245.44 669.249 245.44C665.369 245.44 661.489 243.88 659.609 241ZM689.817 245V224H694.617V226.24C695.817 224.84 697.697 223.6 700.417 223.6C704.817 223.6 707.457 226.64 707.457 231.16V245H702.657V232.56C702.657 229.96 701.617 228.08 698.977 228.08C696.817 228.08 694.617 229.68 694.617 232.68V245H689.817ZM721.236 245.44C715.236 245.44 711.036 241 711.036 234.52C711.036 228.36 715.196 223.6 721.036 223.6C727.116 223.6 730.356 228.2 730.356 233.96V235.56H715.636C715.996 239.16 718.156 241.36 721.236 241.36C723.596 241.36 725.476 240.16 726.116 238L730.236 239.56C728.756 243.24 725.436 245.44 721.236 245.44ZM720.996 227.64C718.516 227.64 716.596 229.12 715.876 231.96H725.516C725.476 229.64 724.036 227.64 720.996 227.64ZM742.838 245.44C736.838 245.44 732.638 241 732.638 234.52C732.638 228.36 736.798 223.6 742.638 223.6C748.718 223.6 751.958 228.2 751.958 233.96V235.56H737.238C737.598 239.16 739.758 241.36 742.838 241.36C745.198 241.36 747.078 240.16 747.718 238L751.838 239.56C750.358 243.24 747.038 245.44 742.838 245.44ZM742.598 227.64C740.118 227.64 738.198 229.12 737.478 231.96H747.118C747.078 229.64 745.638 227.64 742.598 227.64ZM763.479 245.44C757.599 245.44 754.239 240.48 754.239 234.52C754.239 228.56 757.599 223.6 763.479 223.6C766.199 223.6 768.199 224.68 769.519 226.24V216.28H774.319V245H769.519V242.8C768.199 244.36 766.199 245.44 763.479 245.44ZM769.639 233.92C769.639 229.96 767.399 227.8 764.439 227.8C760.959 227.8 759.079 230.52 759.079 234.52C759.079 238.52 760.959 241.24 764.439 241.24C767.399 241.24 769.639 239.04 769.639 235.16V233.92ZM788.228 245.44C782.228 245.44 778.028 241 778.028 234.52C778.028 228.36 782.188 223.6 788.028 223.6C794.108 223.6 797.348 228.2 797.348 233.96V235.56H782.628C782.988 239.16 785.148 241.36 788.228 241.36C790.588 241.36 792.468 240.16 793.108 238L797.228 239.56C795.748 243.24 792.428 245.44 788.228 245.44ZM787.988 227.64C785.508 227.64 783.588 229.12 782.868 231.96H792.508C792.468 229.64 791.028 227.64 787.988 227.64ZM808.87 245.44C802.99 245.44 799.63 240.48 799.63 234.52C799.63 228.56 802.99 223.6 808.87 223.6C811.59 223.6 813.59 224.68 814.91 226.24V216.28H819.71V245H814.91V242.8C813.59 244.36 811.59 245.44 808.87 245.44ZM815.03 233.92C815.03 229.96 812.79 227.8 809.83 227.8C806.35 227.8 804.47 230.52 804.47 234.52C804.47 238.52 806.35 241.24 809.83 241.24C812.79 241.24 815.03 239.04 815.03 235.16V233.92Z" fill="black"/>
<path d="M196.1 1057.1C196.1 1035.3 210.1 1020.1 229.5 1020.1C248.9 1020.1 262.9 1035.3 262.9 1057.1C262.9 1078.9 248.9 1094.1 229.5 1094.1C210.1 1094.1 196.1 1078.9 196.1 1057.1ZM250.1 1057.1C250.1 1041.5 241.6 1031.4 229.5 1031.4C217.4 1031.4 208.9 1041.5 208.9 1057.1C208.9 1072.7 217.4 1082.8 229.5 1082.8C241.6 1082.8 250.1 1072.7 250.1 1057.1ZM272.347 1093V1040.5H284.347V1046.1C287.347 1042.6 292.047 1039.5 298.847 1039.5C309.847 1039.5 316.447 1047.1 316.447 1058.4V1093H304.447V1061.9C304.447 1055.4 301.847 1050.7 295.247 1050.7C289.847 1050.7 284.347 1054.7 284.347 1062.2V1093H272.347ZM350.895 1094.1C335.895 1094.1 325.395 1083 325.395 1066.8C325.395 1051.4 335.795 1039.5 350.395 1039.5C365.595 1039.5 373.695 1051 373.695 1065.4V1069.4H336.895C337.795 1078.4 343.195 1083.9 350.895 1083.9C356.795 1083.9 361.495 1080.9 363.095 1075.5L373.395 1079.4C369.695 1088.6 361.395 1094.1 350.895 1094.1ZM350.295 1049.6C344.095 1049.6 339.295 1053.3 337.495 1060.4H361.595C361.495 1054.6 357.895 1049.6 350.295 1049.6ZM425.504 1094.1C410.504 1094.1 400.004 1083 400.004 1066.8C400.004 1051.4 410.404 1039.5 425.004 1039.5C440.204 1039.5 448.304 1051 448.304 1065.4V1069.4H411.504C412.404 1078.4 417.804 1083.9 425.504 1083.9C431.404 1083.9 436.104 1080.9 437.704 1075.5L448.004 1079.4C444.304 1088.6 436.004 1094.1 425.504 1094.1ZM424.904 1049.6C418.704 1049.6 413.904 1053.3 412.104 1060.4H436.204C436.104 1054.6 432.504 1049.6 424.904 1049.6ZM469.308 1062.2V1093H457.308V1040.5H469.308V1046.1C472.208 1042.6 476.708 1039.5 483.708 1039.5C490.008 1039.5 494.708 1042.3 497.608 1046.8C500.808 1043.4 505.808 1039.5 513.908 1039.5C524.708 1039.5 531.708 1047.1 531.708 1058.4V1093H519.708V1061.9C519.708 1055.4 517.308 1050.7 510.908 1050.7C505.808 1050.7 500.508 1054.7 500.508 1062.2V1093H488.508V1061.9C488.508 1055.4 486.108 1050.7 479.708 1050.7C474.608 1050.7 469.308 1054.7 469.308 1062.2ZM557.829 1093.9C547.829 1093.9 540.129 1087.8 540.129 1078.4C540.129 1068.4 547.629 1064 557.729 1061.9L572.229 1058.9V1058C572.229 1053 569.629 1049.9 563.229 1049.9C557.529 1049.9 554.529 1052.5 553.129 1057.6L541.829 1055C544.429 1046.3 552.129 1039.5 563.729 1039.5C576.329 1039.5 583.929 1045.5 583.929 1057.6V1080.2C583.929 1083.2 585.229 1084.1 588.529 1083.7V1093C579.829 1094 575.229 1092.3 573.429 1088C570.129 1091.7 564.629 1093.9 557.829 1093.9ZM572.229 1074.5V1068.1L560.929 1070.5C555.829 1071.6 552.029 1073.2 552.029 1077.9C552.029 1082 555.029 1084.3 559.629 1084.3C566.029 1084.3 572.229 1080.9 572.229 1074.5ZM603.054 1034.2C598.954 1034.2 596.054 1031.4 596.054 1027.3C596.054 1023.2 598.954 1020.4 603.054 1020.4C607.154 1020.4 610.054 1023.2 610.054 1027.3C610.054 1031.4 607.154 1034.2 603.054 1034.2ZM609.054 1040.5V1093H597.054V1040.5H609.054ZM633.663 1021.2V1093H621.663V1021.2H633.663ZM643.973 1107.3V1100.6C648.273 1099.9 650.773 1096.9 650.773 1093.2C646.273 1093 642.973 1089.7 642.973 1085.4C642.973 1080.8 646.173 1077.5 650.473 1077.5C655.873 1077.5 659.573 1081.8 659.573 1088.7C659.573 1098.8 653.873 1106.2 643.973 1107.3ZM736.639 1066.8C736.639 1083.1 726.139 1094.1 711.339 1094.1C696.539 1094.1 686.039 1083.1 686.039 1066.8C686.039 1050.5 696.539 1039.5 711.339 1039.5C726.139 1039.5 736.639 1050.5 736.639 1066.8ZM698.139 1066.8C698.139 1077.5 703.239 1084 711.339 1084C719.439 1084 724.539 1077.5 724.539 1066.8C724.539 1056.1 719.439 1049.6 711.339 1049.6C703.239 1049.6 698.139 1056.1 698.139 1066.8ZM745.98 1093V1040.5H757.98V1046.1C760.98 1042.6 765.68 1039.5 772.48 1039.5C783.48 1039.5 790.08 1047.1 790.08 1058.4V1093H778.08V1061.9C778.08 1055.4 775.48 1050.7 768.88 1050.7C763.48 1050.7 757.98 1054.7 757.98 1062.2V1093H745.98ZM824.527 1094.1C809.527 1094.1 799.027 1083 799.027 1066.8C799.027 1051.4 809.427 1039.5 824.027 1039.5C839.227 1039.5 847.327 1051 847.327 1065.4V1069.4H810.527C811.427 1078.4 816.827 1083.9 824.527 1083.9C830.427 1083.9 835.127 1080.9 836.727 1075.5L847.027 1079.4C843.327 1088.6 835.027 1094.1 824.527 1094.1ZM823.927 1049.6C817.727 1049.6 812.927 1053.3 811.127 1060.4H835.227C835.127 1054.6 831.527 1049.6 823.927 1049.6ZM901.937 1040.5H911.837L921.237 1075.3L930.537 1040.5H942.437L926.637 1093H916.237L906.637 1058.6L897.037 1093H886.637L870.837 1040.5H883.137L892.637 1075.3L901.937 1040.5ZM970.133 1094.1C955.133 1094.1 944.633 1083 944.633 1066.8C944.633 1051.4 955.033 1039.5 969.633 1039.5C984.833 1039.5 992.933 1051 992.933 1065.4V1069.4H956.133C957.033 1078.4 962.433 1083.9 970.133 1083.9C976.033 1083.9 980.733 1080.9 982.333 1075.5L992.633 1079.4C988.933 1088.6 980.633 1094.1 970.133 1094.1ZM969.533 1049.6C963.333 1049.6 958.533 1053.3 956.733 1060.4H980.833C980.733 1054.6 977.133 1049.6 969.533 1049.6ZM1024.14 1094.1C1009.14 1094.1 998.637 1083 998.637 1066.8C998.637 1051.4 1009.04 1039.5 1023.64 1039.5C1038.84 1039.5 1046.94 1051 1046.94 1065.4V1069.4H1010.14C1011.04 1078.4 1016.44 1083.9 1024.14 1083.9C1030.04 1083.9 1034.74 1080.9 1036.34 1075.5L1046.64 1079.4C1042.94 1088.6 1034.64 1094.1 1024.14 1094.1ZM1023.54 1049.6C1017.34 1049.6 1012.54 1053.3 1010.74 1060.4H1034.84C1034.74 1054.6 1031.14 1049.6 1023.54 1049.6ZM1067.94 1021.2V1062.6L1088.14 1040.5H1102.84L1083.04 1060.9L1104.44 1093H1090.54L1074.84 1069.3L1067.94 1076.3V1093H1055.94V1021.2H1067.94Z" fill="black"/>
<path d="M553.84 376.4C547 376.4 542.28 372.52 542.28 364.6V347.28H547.4V364.44C547.4 369.68 550 371.88 553.84 371.88C557.72 371.88 560.32 369.68 560.32 364.44V347.28H565.44V364.6C565.44 372.52 560.72 376.4 553.84 376.4ZM581.094 376.44C578.374 376.44 576.374 375.36 575.054 373.8V383.2H570.254V355H575.054V357.24C576.374 355.68 578.374 354.6 581.094 354.6C586.974 354.6 590.334 359.56 590.334 365.52C590.334 371.48 586.974 376.44 581.094 376.44ZM574.934 364.92V366.16C574.934 370.04 577.174 372.24 580.134 372.24C583.614 372.24 585.494 369.52 585.494 365.52C585.494 361.52 583.614 358.8 580.134 358.8C577.174 358.8 574.934 360.96 574.934 364.92ZM601.963 376.44C596.083 376.44 592.723 371.48 592.723 365.52C592.723 359.56 596.083 354.6 601.963 354.6C604.683 354.6 606.683 355.68 608.003 357.24V347.28H612.803V376H608.003V373.8C606.683 375.36 604.683 376.44 601.963 376.44ZM608.123 364.92C608.123 360.96 605.883 358.8 602.923 358.8C599.443 358.8 597.563 361.52 597.563 365.52C597.563 369.52 599.443 372.24 602.923 372.24C605.883 372.24 608.123 370.04 608.123 366.16V364.92ZM623.393 376.36C619.393 376.36 616.313 373.92 616.313 370.16C616.313 366.16 619.313 364.4 623.353 363.56L629.153 362.36V362C629.153 360 628.113 358.76 625.553 358.76C623.273 358.76 622.073 359.8 621.513 361.84L616.993 360.8C618.033 357.32 621.113 354.6 625.753 354.6C630.793 354.6 633.833 357 633.833 361.84V370.88C633.833 372.08 634.353 372.44 635.673 372.28V376C632.193 376.4 630.353 375.72 629.633 374C628.313 375.48 626.113 376.36 623.393 376.36ZM629.153 368.6V366.04L624.633 367C622.593 367.44 621.073 368.08 621.073 369.96C621.073 371.6 622.273 372.52 624.113 372.52C626.673 372.52 629.153 371.16 629.153 368.6ZM639.523 370.72V359.08H636.603V355H639.523V348.84H644.243V355H648.643V359.08H644.243V369.96C644.243 371.84 645.323 372.04 647.043 372.04C647.843 372.04 648.283 372 649.003 371.92V375.96C648.123 376.12 646.923 376.24 645.683 376.24C641.683 376.24 639.523 375 639.523 370.72ZM661.283 376.44C655.283 376.44 651.083 372 651.083 365.52C651.083 359.36 655.243 354.6 661.083 354.6C667.163 354.6 670.403 359.2 670.403 364.96V366.56H655.683C656.043 370.16 658.203 372.36 661.283 372.36C663.643 372.36 665.523 371.16 666.163 369L670.283 370.56C668.803 374.24 665.483 376.44 661.283 376.44ZM661.043 358.64C658.563 358.64 656.643 360.12 655.923 362.96H665.563C665.523 360.64 664.083 358.64 661.043 358.64ZM682.687 370.72V359.08H679.767V355H682.687V348.84H687.407V355H691.807V359.08H687.407V369.96C687.407 371.84 688.487 372.04 690.207 372.04C691.007 372.04 691.447 372 692.167 371.92V375.96C691.287 376.12 690.087 376.24 688.847 376.24C684.847 376.24 682.687 375 682.687 370.72ZM704.447 376.44C698.447 376.44 694.247 372 694.247 365.52C694.247 359.36 698.407 354.6 704.247 354.6C710.327 354.6 713.567 359.2 713.567 364.96V366.56H698.847C699.207 370.16 701.367 372.36 704.447 372.36C706.807 372.36 708.687 371.16 709.327 369L713.447 370.56C711.967 374.24 708.647 376.44 704.447 376.44ZM704.207 358.64C701.727 358.64 699.807 360.12 699.087 362.96H708.727C708.687 360.64 707.247 358.64 704.207 358.64ZM728.713 376L723.753 368.72L718.833 376H713.633L721.033 365.12L714.153 355H719.593L723.913 361.56L728.313 355H733.553L726.673 365.12L734.113 376H728.713ZM737.062 370.72V359.08H734.142V355H737.062V348.84H741.782V355H746.182V359.08H741.782V369.96C741.782 371.84 742.862 372.04 744.582 372.04C745.382 372.04 745.822 372 746.542 371.92V375.96C745.662 376.12 744.462 376.24 743.222 376.24C739.222 376.24 737.062 375 737.062 370.72ZM760.779 352.48C759.139 352.48 757.979 351.36 757.979 349.72C757.979 348.08 759.139 346.96 760.779 346.96C762.419 346.96 763.579 348.08 763.579 349.72C763.579 351.36 762.419 352.48 760.779 352.48ZM763.179 355V376H758.379V355H763.179ZM768.223 376V355H773.023V357.24C774.223 355.84 776.103 354.6 778.823 354.6C783.223 354.6 785.863 357.64 785.863 362.16V376H781.063V363.56C781.063 360.96 780.023 359.08 777.383 359.08C775.223 359.08 773.023 360.68 773.023 363.68V376H768.223ZM818.404 376V373.04C817.244 374.96 814.444 376.44 810.684 376.44C803.244 376.44 797.724 370.44 797.724 361.76C797.724 353.04 803.284 346.84 811.004 346.84C816.884 346.84 820.844 350 822.604 355.08L817.724 356.72C816.884 353.32 814.484 351.36 811.044 351.36C806.204 351.36 802.844 355.48 802.844 361.68C802.844 367.88 806.204 372.04 811.124 372.04C815.284 372.04 818.004 369.08 818.164 365H810.604V360.52H823.084V376H818.404ZM833.387 364.88V376H828.267V347.28H839.747C846.147 347.28 850.147 350.28 850.147 356.08C850.147 361.8 846.147 364.88 839.747 364.88H833.387ZM833.387 360.48H839.467C843.147 360.48 845.107 358.88 845.107 356.08C845.107 353.24 843.147 351.68 839.467 351.68H833.387V360.48ZM875.02 351.76H865.78V376H860.66V351.76H851.42V347.28H875.02V351.76Z" fill="black"/>
<path d="M758.84 474.88V486H753.72V457.28H765.2C771.6 457.28 775.6 460.28 775.6 466.08C775.6 470.6 773.12 473.48 768.92 474.48L776.32 486H770.48L763.48 474.88H758.84ZM758.84 470.48H764.92C768.6 470.48 770.56 468.88 770.56 466.08C770.56 463.24 768.6 461.68 764.92 461.68H758.84V470.48ZM788.142 486.44C782.142 486.44 777.942 482 777.942 475.52C777.942 469.36 782.102 464.6 787.942 464.6C794.022 464.6 797.262 469.2 797.262 474.96V476.56H782.542C782.902 480.16 785.062 482.36 788.142 482.36C790.502 482.36 792.382 481.16 793.022 479L797.142 480.56C795.662 484.24 792.342 486.44 788.142 486.44ZM787.902 468.64C785.422 468.64 783.502 470.12 782.782 472.96H792.422C792.382 470.64 790.942 468.64 787.902 468.64ZM810.553 486H805.713L798.033 465H803.073L808.193 480.24L813.273 465H818.233L810.553 486ZM823.225 462.48C821.585 462.48 820.425 461.36 820.425 459.72C820.425 458.08 821.585 456.96 823.225 456.96C824.865 456.96 826.025 458.08 826.025 459.72C826.025 461.36 824.865 462.48 823.225 462.48ZM825.625 465V486H820.825V465H825.625ZM839.548 486.44C833.548 486.44 829.348 482 829.348 475.52C829.348 469.36 833.508 464.6 839.348 464.6C845.428 464.6 848.668 469.2 848.668 474.96V476.56H833.948C834.308 480.16 836.468 482.36 839.548 482.36C841.908 482.36 843.788 481.16 844.428 479L848.548 480.56C847.068 484.24 843.748 486.44 839.548 486.44ZM839.308 468.64C836.828 468.64 834.908 470.12 834.188 472.96H843.828C843.788 470.64 842.348 468.64 839.308 468.64ZM862.075 465H866.035L869.795 478.92L873.515 465H878.275L871.955 486H867.795L863.955 472.24L860.115 486H855.955L849.635 465H854.555L858.355 478.92L862.075 465ZM899.106 465H903.066L906.826 478.92L910.546 465H915.306L908.986 486H904.826L900.986 472.24L897.146 486H892.986L886.666 465H891.586L895.386 478.92L899.106 465ZM920.295 462.48C918.655 462.48 917.495 461.36 917.495 459.72C917.495 458.08 918.655 456.96 920.295 456.96C921.935 456.96 923.095 458.08 923.095 459.72C923.095 461.36 921.935 462.48 920.295 462.48ZM922.695 465V486H917.895V465H922.695ZM928.179 480.72V469.08H925.259V465H928.179V458.84H932.899V465H937.299V469.08H932.899V479.96C932.899 481.84 933.979 482.04 935.699 482.04C936.499 482.04 936.939 482 937.659 481.92V485.96C936.779 486.12 935.579 486.24 934.339 486.24C930.339 486.24 928.179 485 928.179 480.72ZM941.254 486V457.28H946.054V467.24C947.254 465.84 949.134 464.6 951.854 464.6C956.254 464.6 958.894 467.64 958.894 472.16V486H954.094V473.56C954.094 470.96 953.054 469.08 950.414 469.08C948.254 469.08 946.054 470.68 946.054 473.68V486H941.254ZM969.836 482L973.436 479.12C974.676 481.16 977.076 482.52 979.516 482.52C981.556 482.52 983.436 481.8 983.436 479.92C983.436 478.12 981.676 477.92 978.356 477.24C975.036 476.56 971.236 475.72 971.236 471.24C971.236 467.4 974.596 464.6 979.436 464.6C983.116 464.6 986.396 466.24 987.916 468.56L984.676 471.48C983.476 469.6 981.476 468.52 979.156 468.52C977.196 468.52 975.916 469.4 975.916 470.8C975.916 472.32 977.436 472.6 980.076 473.16C983.636 473.92 988.116 474.68 988.116 479.48C988.116 483.72 984.236 486.44 979.476 486.44C975.596 486.44 971.716 484.88 969.836 482ZM992.241 480.72V469.08H989.321V465H992.241V458.84H996.961V465H1001.36V469.08H996.961V479.96C996.961 481.84 998.041 482.04 999.761 482.04C1000.56 482.04 1001 482 1001.72 481.92V485.96C1000.84 486.12 999.641 486.24 998.401 486.24C994.401 486.24 992.241 485 992.241 480.72ZM1010.88 486.36C1006.88 486.36 1003.8 483.92 1003.8 480.16C1003.8 476.16 1006.8 474.4 1010.84 473.56L1016.64 472.36V472C1016.64 470 1015.6 468.76 1013.04 468.76C1010.76 468.76 1009.56 469.8 1009 471.84L1004.48 470.8C1005.52 467.32 1008.6 464.6 1013.24 464.6C1018.28 464.6 1021.32 467 1021.32 471.84V480.88C1021.32 482.08 1021.84 482.44 1023.16 482.28V486C1019.68 486.4 1017.84 485.72 1017.12 484C1015.8 485.48 1013.6 486.36 1010.88 486.36ZM1016.64 478.6V476.04L1012.12 477C1010.08 477.44 1008.56 478.08 1008.56 479.96C1008.56 481.6 1009.76 482.52 1011.6 482.52C1014.16 482.52 1016.64 481.16 1016.64 478.6ZM1031.37 457.28V473.84L1039.45 465H1045.33L1037.41 473.16L1045.97 486H1040.41L1034.13 476.52L1031.37 479.32V486H1026.57V457.28H1031.37ZM1056.27 486.44C1050.27 486.44 1046.07 482 1046.07 475.52C1046.07 469.36 1050.23 464.6 1056.07 464.6C1062.15 464.6 1065.39 469.2 1065.39 474.96V476.56H1050.67C1051.03 480.16 1053.19 482.36 1056.27 482.36C1058.63 482.36 1060.51 481.16 1061.15 479L1065.27 480.56C1063.79 484.24 1060.47 486.44 1056.27 486.44ZM1056.03 468.64C1053.55 468.64 1051.63 470.12 1050.91 472.96H1060.55C1060.51 470.64 1059.07 468.64 1056.03 468.64ZM1068.99 486V457.28H1073.79V467.24C1074.99 465.84 1076.87 464.6 1079.59 464.6C1083.99 464.6 1086.63 467.64 1086.63 472.16V486H1081.83V473.56C1081.83 470.96 1080.79 469.08 1078.15 469.08C1075.99 469.08 1073.79 470.68 1073.79 473.68V486H1068.99ZM1110.45 475.52C1110.45 482.04 1106.25 486.44 1100.33 486.44C1094.41 486.44 1090.21 482.04 1090.21 475.52C1090.21 469 1094.41 464.6 1100.33 464.6C1106.25 464.6 1110.45 469 1110.45 475.52ZM1095.05 475.52C1095.05 479.8 1097.09 482.4 1100.33 482.4C1103.57 482.4 1105.61 479.8 1105.61 475.52C1105.61 471.24 1103.57 468.64 1100.33 468.64C1097.09 468.64 1095.05 471.24 1095.05 475.52ZM1118.98 457.28V486H1114.18V457.28H1118.98ZM1131.95 486.44C1126.07 486.44 1122.71 481.48 1122.71 475.52C1122.71 469.56 1126.07 464.6 1131.95 464.6C1134.67 464.6 1136.67 465.68 1137.99 467.24V457.28H1142.79V486H1137.99V483.8C1136.67 485.36 1134.67 486.44 1131.95 486.44ZM1138.11 474.92C1138.11 470.96 1135.87 468.8 1132.91 468.8C1129.43 468.8 1127.55 471.52 1127.55 475.52C1127.55 479.52 1129.43 482.24 1132.91 482.24C1135.87 482.24 1138.11 480.04 1138.11 476.16V474.92ZM1156.7 486.44C1150.7 486.44 1146.5 482 1146.5 475.52C1146.5 469.36 1150.66 464.6 1156.5 464.6C1162.58 464.6 1165.82 469.2 1165.82 474.96V476.56H1151.1C1151.46 480.16 1153.62 482.36 1156.7 482.36C1159.06 482.36 1160.94 481.16 1161.58 479L1165.7 480.56C1164.22 484.24 1160.9 486.44 1156.7 486.44ZM1156.46 468.64C1153.98 468.64 1152.06 470.12 1151.34 472.96H1160.98C1160.94 470.64 1159.5 468.64 1156.46 468.64ZM1181.34 464.96V469.76C1180.74 469.68 1180.26 469.64 1179.58 469.64C1176.54 469.64 1174.22 471.6 1174.22 474.96V486H1169.42V465H1174.22V468.12C1175.14 466.16 1177.3 464.88 1179.98 464.88C1180.54 464.88 1180.98 464.92 1181.34 464.96ZM1182.06 482L1185.66 479.12C1186.9 481.16 1189.3 482.52 1191.74 482.52C1193.78 482.52 1195.66 481.8 1195.66 479.92C1195.66 478.12 1193.9 477.92 1190.58 477.24C1187.26 476.56 1183.46 475.72 1183.46 471.24C1183.46 467.4 1186.82 464.6 1191.66 464.6C1195.34 464.6 1198.62 466.24 1200.14 468.56L1196.9 471.48C1195.7 469.6 1193.7 468.52 1191.38 468.52C1189.42 468.52 1188.14 469.4 1188.14 470.8C1188.14 472.32 1189.66 472.6 1192.3 473.16C1195.86 473.92 1200.34 474.68 1200.34 479.48C1200.34 483.72 1196.46 486.44 1191.7 486.44C1187.82 486.44 1183.94 484.88 1182.06 482Z" fill="black"/>
<path d="M1436.84 351.28V380H1431.72V351.28H1436.84ZM1442.51 374.72V363.08H1439.59V359H1442.51V352.84H1447.23V359H1451.63V363.08H1447.23V373.96C1447.23 375.84 1448.31 376.04 1450.03 376.04C1450.83 376.04 1451.27 376 1451.99 375.92V379.96C1451.11 380.12 1449.91 380.24 1448.67 380.24C1444.67 380.24 1442.51 379 1442.51 374.72ZM1464.27 380.44C1458.27 380.44 1454.07 376 1454.07 369.52C1454.07 363.36 1458.23 358.6 1464.07 358.6C1470.15 358.6 1473.39 363.2 1473.39 368.96V370.56H1458.67C1459.03 374.16 1461.19 376.36 1464.27 376.36C1466.63 376.36 1468.51 375.16 1469.15 373L1473.27 374.56C1471.79 378.24 1468.47 380.44 1464.27 380.44ZM1464.03 362.64C1461.55 362.64 1459.63 364.12 1458.91 366.96H1468.55C1468.51 364.64 1467.07 362.64 1464.03 362.64ZM1488.91 358.96V363.76C1488.31 363.68 1487.83 363.64 1487.15 363.64C1484.11 363.64 1481.79 365.6 1481.79 368.96V380H1476.99V359H1481.79V362.12C1482.71 360.16 1484.87 358.88 1487.55 358.88C1488.11 358.88 1488.55 358.92 1488.91 358.96ZM1497.2 380.36C1493.2 380.36 1490.12 377.92 1490.12 374.16C1490.12 370.16 1493.12 368.4 1497.16 367.56L1502.96 366.36V366C1502.96 364 1501.92 362.76 1499.36 362.76C1497.08 362.76 1495.88 363.8 1495.32 365.84L1490.8 364.8C1491.84 361.32 1494.92 358.6 1499.56 358.6C1504.6 358.6 1507.64 361 1507.64 365.84V374.88C1507.64 376.08 1508.16 376.44 1509.48 376.28V380C1506 380.4 1504.16 379.72 1503.44 378C1502.12 379.48 1499.92 380.36 1497.2 380.36ZM1502.96 372.6V370.04L1498.44 371C1496.4 371.44 1494.88 372.08 1494.88 373.96C1494.88 375.6 1496.08 376.52 1497.92 376.52C1500.48 376.52 1502.96 375.16 1502.96 372.6ZM1513.33 374.72V363.08H1510.41V359H1513.33V352.84H1518.05V359H1522.45V363.08H1518.05V373.96C1518.05 375.84 1519.13 376.04 1520.85 376.04C1521.65 376.04 1522.09 376 1522.81 375.92V379.96C1521.93 380.12 1520.73 380.24 1519.49 380.24C1515.49 380.24 1513.33 379 1513.33 374.72ZM1535.09 380.44C1529.09 380.44 1524.89 376 1524.89 369.52C1524.89 363.36 1529.05 358.6 1534.89 358.6C1540.97 358.6 1544.21 363.2 1544.21 368.96V370.56H1529.49C1529.85 374.16 1532.01 376.36 1535.09 376.36C1537.45 376.36 1539.33 375.16 1539.97 373L1544.09 374.56C1542.61 378.24 1539.29 380.44 1535.09 380.44ZM1534.85 362.64C1532.37 362.64 1530.45 364.12 1529.73 366.96H1539.37C1539.33 364.64 1537.89 362.64 1534.85 362.64ZM1574.97 369.52C1574.97 376.04 1570.77 380.44 1564.85 380.44C1558.93 380.44 1554.73 376.04 1554.73 369.52C1554.73 363 1558.93 358.6 1564.85 358.6C1570.77 358.6 1574.97 363 1574.97 369.52ZM1559.57 369.52C1559.57 373.8 1561.61 376.4 1564.85 376.4C1568.09 376.4 1570.13 373.8 1570.13 369.52C1570.13 365.24 1568.09 362.64 1564.85 362.64C1561.61 362.64 1559.57 365.24 1559.57 369.52ZM1578.71 380V359H1583.51V361.24C1584.71 359.84 1586.59 358.6 1589.31 358.6C1593.71 358.6 1596.35 361.64 1596.35 366.16V380H1591.55V367.56C1591.55 364.96 1590.51 363.08 1587.87 363.08C1585.71 363.08 1583.51 364.68 1583.51 367.68V380H1578.71ZM1618.37 380.44C1612.37 380.44 1608.17 376 1608.17 369.52C1608.17 363.36 1612.33 358.6 1618.17 358.6C1624.25 358.6 1627.49 363.2 1627.49 368.96V370.56H1612.77C1613.13 374.16 1615.29 376.36 1618.37 376.36C1620.73 376.36 1622.61 375.16 1623.25 373L1627.37 374.56C1625.89 378.24 1622.57 380.44 1618.37 380.44ZM1618.13 362.64C1615.65 362.64 1613.73 364.12 1613.01 366.96H1622.65C1622.61 364.64 1621.17 362.64 1618.13 362.64ZM1635.89 367.68V380H1631.09V359H1635.89V361.24C1637.05 359.84 1638.85 358.6 1641.65 358.6C1644.17 358.6 1646.05 359.72 1647.21 361.52C1648.49 360.16 1650.49 358.6 1653.73 358.6C1658.05 358.6 1660.85 361.64 1660.85 366.16V380H1656.05V367.56C1656.05 364.96 1655.09 363.08 1652.53 363.08C1650.49 363.08 1648.37 364.68 1648.37 367.68V380H1643.57V367.56C1643.57 364.96 1642.61 363.08 1640.05 363.08C1638.01 363.08 1635.89 364.68 1635.89 367.68ZM1671.3 380.36C1667.3 380.36 1664.22 377.92 1664.22 374.16C1664.22 370.16 1667.22 368.4 1671.26 367.56L1677.06 366.36V366C1677.06 364 1676.02 362.76 1673.46 362.76C1671.18 362.76 1669.98 363.8 1669.42 365.84L1664.9 364.8C1665.94 361.32 1669.02 358.6 1673.66 358.6C1678.7 358.6 1681.74 361 1681.74 365.84V374.88C1681.74 376.08 1682.26 376.44 1683.58 376.28V380C1680.1 380.4 1678.26 379.72 1677.54 378C1676.22 379.48 1674.02 380.36 1671.3 380.36ZM1677.06 372.6V370.04L1672.54 371C1670.5 371.44 1668.98 372.08 1668.98 373.96C1668.98 375.6 1670.18 376.52 1672.02 376.52C1674.58 376.52 1677.06 375.16 1677.06 372.6ZM1689.39 356.48C1687.75 356.48 1686.59 355.36 1686.59 353.72C1686.59 352.08 1687.75 350.96 1689.39 350.96C1691.03 350.96 1692.19 352.08 1692.19 353.72C1692.19 355.36 1691.03 356.48 1689.39 356.48ZM1691.79 359V380H1686.99V359H1691.79ZM1701.63 351.28V380H1696.83V351.28H1701.63Z" fill="black"/>
<path d="M1847.72 380V351.28H1852.84V375.52H1866.36V380H1847.72ZM1875.42 380.36C1871.42 380.36 1868.34 377.92 1868.34 374.16C1868.34 370.16 1871.34 368.4 1875.38 367.56L1881.18 366.36V366C1881.18 364 1880.14 362.76 1877.58 362.76C1875.3 362.76 1874.1 363.8 1873.54 365.84L1869.02 364.8C1870.06 361.32 1873.14 358.6 1877.78 358.6C1882.82 358.6 1885.86 361 1885.86 365.84V374.88C1885.86 376.08 1886.38 376.44 1887.7 376.28V380C1884.22 380.4 1882.38 379.72 1881.66 378C1880.34 379.48 1878.14 380.36 1875.42 380.36ZM1881.18 372.6V370.04L1876.66 371C1874.62 371.44 1873.1 372.08 1873.1 373.96C1873.1 375.6 1874.3 376.52 1876.14 376.52C1878.7 376.52 1881.18 375.16 1881.18 372.6ZM1908.59 359V380H1903.79V377.76C1902.59 379.16 1900.79 380.44 1898.07 380.44C1893.67 380.44 1890.95 377.44 1890.95 372.92V359H1895.75V371.88C1895.75 374.44 1896.87 376.08 1899.47 376.08C1901.63 376.08 1903.79 374.48 1903.79 371.48V359H1908.59ZM1913.65 380V359H1918.45V361.24C1919.65 359.84 1921.53 358.6 1924.25 358.6C1928.65 358.6 1931.29 361.64 1931.29 366.16V380H1926.49V367.56C1926.49 364.96 1925.45 363.08 1922.81 363.08C1920.65 363.08 1918.45 364.68 1918.45 367.68V380H1913.65ZM1939.67 369.52C1939.67 373.8 1941.91 376.28 1945.19 376.28C1947.75 376.28 1949.31 374.6 1949.91 372.28L1954.03 374.36C1952.95 377.76 1949.75 380.44 1945.19 380.44C1939.19 380.44 1934.87 376 1934.87 369.52C1934.87 363.04 1939.19 358.6 1945.19 358.6C1949.71 358.6 1952.83 361.16 1953.95 364.52L1949.91 366.72C1949.31 364.44 1947.75 362.72 1945.19 362.72C1941.91 362.72 1939.67 365.24 1939.67 369.52ZM1956.93 380V351.28H1961.73V361.24C1962.93 359.84 1964.81 358.6 1967.53 358.6C1971.93 358.6 1974.57 361.64 1974.57 366.16V380H1969.77V367.56C1969.77 364.96 1968.73 363.08 1966.09 363.08C1963.93 363.08 1961.73 364.68 1961.73 367.68V380H1956.93Z" fill="black"/>
<path d="M715.264 755.984C715.264 757.616 714.616 758.816 713.68 759.608L719.32 759.608L719.32 762.488L702.4 762.488L702.4 759.608L703.744 759.608C702.808 758.816 702.16 757.616 702.16 755.984C702.16 752.456 705.136 750.44 708.712 750.44C712.288 750.44 715.264 752.456 715.264 755.984ZM708.352 759.68L709.096 759.68C711.424 759.68 712.744 758.336 712.744 756.56C712.744 754.472 711.112 753.344 708.712 753.344C706.312 753.344 704.68 754.472 704.68 756.56C704.68 758.336 705.976 759.68 708.352 759.68ZM702.376 741.063L705.256 741.063C705.208 741.423 705.184 741.711 705.184 742.119C705.184 743.943 706.36 745.335 708.376 745.335L715 745.335L715 748.215L702.4 748.215L702.4 745.335L704.272 745.335C703.096 744.783 702.328 743.487 702.328 741.879C702.328 741.543 702.352 741.279 702.376 741.063ZM708.712 728.331C712.624 728.331 715.264 730.851 715.264 734.403C715.264 737.955 712.624 740.475 708.712 740.475C704.8 740.475 702.16 737.955 702.16 734.403C702.16 730.851 704.8 728.331 708.712 728.331ZM708.712 737.571C711.28 737.571 712.84 736.347 712.84 734.403C712.84 732.459 711.28 731.235 708.712 731.235C706.144 731.235 704.584 732.459 704.584 734.403C704.584 736.347 706.144 737.571 708.712 737.571ZM715.264 721.338C715.264 724.866 712.288 726.882 708.712 726.882C705.136 726.882 702.16 724.866 702.16 721.338C702.16 719.706 702.808 718.506 703.744 717.714L697.768 717.714L697.768 714.834L715 714.834L715 717.714L713.68 717.714C714.616 718.506 715.264 719.706 715.264 721.338ZM708.352 717.642C705.976 717.642 704.68 718.986 704.68 720.762C704.68 722.85 706.312 723.978 708.712 723.978C711.112 723.978 712.744 722.85 712.744 720.762C712.744 718.986 711.424 717.642 709.096 717.642L708.352 717.642ZM702.4 701.328L715 701.328L715 704.208L713.656 704.208C714.496 704.928 715.264 706.008 715.264 707.64C715.264 710.28 713.464 711.912 710.752 711.912L702.4 711.912L702.4 709.032L710.128 709.032C711.664 709.032 712.648 708.36 712.648 706.8C712.648 705.504 711.688 704.208 709.888 704.208L702.4 704.208L702.4 701.328ZM708.712 696.205C711.28 696.205 712.768 694.861 712.768 692.893C712.768 691.357 711.76 690.421 710.368 690.061L711.616 687.589C713.656 688.237 715.264 690.157 715.264 692.893C715.264 696.493 712.6 699.085 708.712 699.085C704.824 699.085 702.16 696.493 702.16 692.893C702.16 690.181 703.696 688.309 705.712 687.637L707.032 690.061C705.664 690.421 704.632 691.357 704.632 692.893C704.632 694.861 706.144 696.205 708.712 696.205ZM711.832 685.583L704.848 685.583L704.848 687.335L702.4 687.335L702.4 685.583L698.704 685.583L698.704 682.751L702.4 682.751L702.4 680.111L704.848 680.111L704.848 682.751L711.376 682.751C712.504 682.751 712.624 682.103 712.624 681.071C712.624 680.591 712.6 680.327 712.552 679.895L714.976 679.895C715.072 680.423 715.144 681.143 715.144 681.887C715.144 684.287 714.4 685.583 711.832 685.583Z" fill="black"/>
<path d="M566.768 757.232L566.768 753.752L584 747.224L584 750.32L580.064 751.808L580.064 759.248L584 760.712L584 763.76L566.768 757.232ZM570.176 755.552L577.376 758.24L577.376 752.816L570.176 755.552ZM566.768 742.28L584 742.28L584 745.352L566.768 745.352L566.768 742.28ZM580.832 733.935L573.848 733.935L573.848 735.687L571.4 735.687L571.4 733.935L567.704 733.935L567.704 731.103L571.4 731.103L571.4 728.463L573.848 728.463L573.848 731.103L580.376 731.103C581.504 731.103 581.624 730.455 581.624 729.423C581.624 728.943 581.6 728.679 581.552 728.247L583.976 728.247C584.072 728.775 584.144 729.495 584.144 730.239C584.144 732.639 583.4 733.935 580.832 733.935ZM577.712 714.855C581.624 714.855 584.264 717.375 584.264 720.927C584.264 724.479 581.624 726.999 577.712 726.999C573.8 726.999 571.16 724.479 571.16 720.927C571.16 717.375 573.8 714.855 577.712 714.855ZM577.712 724.095C580.28 724.095 581.84 722.871 581.84 720.927C581.84 718.983 580.28 717.759 577.712 717.759C575.144 717.759 573.584 718.983 573.584 720.927C573.584 722.871 575.144 724.095 577.712 724.095ZM577.712 701.261C581.624 701.261 584.264 703.781 584.264 707.333C584.264 710.885 581.624 713.405 577.712 713.405C573.8 713.405 571.16 710.885 571.16 707.333C571.16 703.781 573.8 701.261 577.712 701.261ZM577.712 710.501C580.28 710.501 581.84 709.277 581.84 707.333C581.84 705.389 580.28 704.165 577.712 704.165C575.144 704.165 573.584 705.389 573.584 707.333C573.584 709.277 575.144 710.501 577.712 710.501ZM566.768 696.139L584 696.139L584 699.019L566.768 699.019L566.768 696.139ZM581.6 694.433L579.872 692.273C581.096 691.529 581.912 690.089 581.912 688.625C581.912 687.401 581.48 686.273 580.352 686.273C579.272 686.273 579.152 687.329 578.744 689.321C578.336 691.313 577.832 693.593 575.144 693.593C572.84 693.593 571.16 691.577 571.16 688.673C571.16 686.465 572.144 684.497 573.536 683.585L575.288 685.529C574.16 686.249 573.512 687.449 573.512 688.841C573.512 690.017 574.04 690.785 574.88 690.785C575.792 690.785 575.96 689.873 576.296 688.289C576.752 686.153 577.208 683.465 580.088 683.465C582.632 683.465 584.264 685.793 584.264 688.649C584.264 690.977 583.328 693.305 581.6 694.433Z" fill="black"/>
<path d="M1475.61 759.608L1483 759.608L1483 762.488L1470.4 762.488L1470.4 759.608L1471.74 759.608C1470.9 758.912 1470.16 757.832 1470.16 756.152C1470.16 754.64 1470.83 753.512 1471.91 752.816C1471.1 752.048 1470.16 750.848 1470.16 748.904C1470.16 746.312 1471.98 744.632 1474.7 744.632L1483 744.632L1483 747.512L1475.54 747.512C1473.98 747.512 1472.85 748.088 1472.85 749.624C1472.85 750.848 1473.81 752.12 1475.61 752.12L1483 752.12L1483 755L1475.54 755C1473.98 755 1472.85 755.576 1472.85 757.112C1472.85 758.336 1473.81 759.608 1475.61 759.608ZM1483.22 738.363C1483.22 740.763 1481.75 742.611 1479.5 742.611C1477.1 742.611 1476.04 740.811 1475.54 738.387L1474.82 734.907L1474.6 734.907C1473.4 734.907 1472.66 735.531 1472.66 737.067C1472.66 738.435 1473.28 739.155 1474.5 739.491L1473.88 742.203C1471.79 741.579 1470.16 739.731 1470.16 736.947C1470.16 733.923 1471.6 732.099 1474.5 732.099L1479.93 732.099C1480.65 732.099 1480.86 731.787 1480.77 730.995L1483 730.995C1483.24 733.083 1482.83 734.187 1481.8 734.619C1482.69 735.411 1483.22 736.731 1483.22 738.363ZM1478.56 734.907L1477.02 734.907L1477.6 737.619C1477.86 738.843 1478.25 739.755 1479.38 739.755C1480.36 739.755 1480.91 739.035 1480.91 737.931C1480.91 736.395 1480.1 734.907 1478.56 734.907ZM1483 728.949L1470.4 728.949L1470.4 726.069L1471.74 726.069C1470.9 725.349 1470.16 724.221 1470.16 722.589C1470.16 719.949 1471.98 718.365 1474.7 718.365L1483 718.365L1483 721.245L1475.54 721.245C1473.98 721.245 1472.85 721.869 1472.85 723.453C1472.85 724.749 1473.81 726.069 1475.61 726.069L1483 726.069L1483 728.949ZM1470.4 704.937L1483 704.937L1483 707.817L1481.66 707.817C1482.5 708.537 1483.26 709.617 1483.26 711.249C1483.26 713.889 1481.46 715.521 1478.75 715.521L1470.4 715.521L1470.4 712.641L1478.13 712.641C1479.66 712.641 1480.65 711.969 1480.65 710.409C1480.65 709.113 1479.69 707.817 1477.89 707.817L1470.4 707.817L1470.4 704.937ZM1483.22 698.566C1483.22 700.966 1481.75 702.814 1479.5 702.814C1477.1 702.814 1476.04 701.014 1475.54 698.59L1474.82 695.11L1474.6 695.11C1473.4 695.11 1472.66 695.734 1472.66 697.27C1472.66 698.638 1473.28 699.358 1474.5 699.694L1473.88 702.406C1471.79 701.782 1470.16 699.934 1470.16 697.15C1470.16 694.126 1471.6 692.302 1474.5 692.302L1479.93 692.302C1480.65 692.302 1480.86 691.99 1480.77 691.198L1483 691.198C1483.24 693.286 1482.83 694.39 1481.8 694.822C1482.69 695.614 1483.22 696.934 1483.22 698.566ZM1478.56 695.11L1477.02 695.11L1477.6 697.822C1477.86 699.046 1478.25 699.958 1479.38 699.958C1480.36 699.958 1480.91 699.238 1480.91 698.134C1480.91 696.598 1480.1 695.11 1478.56 695.11ZM1465.77 686.272L1483 686.272L1483 689.152L1465.77 689.152L1465.77 686.272ZM1470.4 667.812L1483 667.812L1483 670.692L1481.66 670.692C1482.5 671.412 1483.26 672.492 1483.26 674.124C1483.26 676.764 1481.46 678.396 1478.75 678.396L1470.4 678.396L1470.4 675.516L1478.13 675.516C1479.66 675.516 1480.65 674.844 1480.65 673.284C1480.65 671.988 1479.69 670.692 1477.89 670.692L1470.4 670.692L1470.4 667.812ZM1483.26 658.273C1483.26 659.905 1482.62 661.105 1481.68 661.897L1487.32 661.897L1487.32 664.777L1470.4 664.777L1470.4 661.897L1471.74 661.897C1470.81 661.105 1470.16 659.905 1470.16 658.273C1470.16 654.745 1473.14 652.729 1476.71 652.729C1480.29 652.729 1483.26 654.745 1483.26 658.273ZM1476.35 661.969L1477.1 661.969C1479.42 661.969 1480.74 660.625 1480.74 658.849C1480.74 656.761 1479.11 655.633 1476.71 655.633C1474.31 655.633 1472.68 656.761 1472.68 658.849C1472.68 660.625 1473.98 661.969 1476.35 661.969ZM1483.26 645.752C1483.26 649.28 1480.29 651.296 1476.71 651.296C1473.14 651.296 1470.16 649.28 1470.16 645.752C1470.16 644.12 1470.81 642.92 1471.74 642.128L1465.77 642.128L1465.77 639.248L1483 639.248L1483 642.128L1481.68 642.128C1482.62 642.92 1483.26 644.12 1483.26 645.752ZM1476.35 642.056C1473.98 642.056 1472.68 643.4 1472.68 645.176C1472.68 647.264 1474.31 648.392 1476.71 648.392C1479.11 648.392 1480.74 647.264 1480.74 645.176C1480.74 643.4 1479.42 642.056 1477.1 642.056L1476.35 642.056ZM1483.22 632.894C1483.22 635.294 1481.75 637.142 1479.5 637.142C1477.1 637.142 1476.04 635.342 1475.54 632.918L1474.82 629.438L1474.6 629.438C1473.4 629.438 1472.66 630.062 1472.66 631.598C1472.66 632.966 1473.28 633.686 1474.5 634.022L1473.88 636.734C1471.79 636.11 1470.16 634.262 1470.16 631.478C1470.16 628.454 1471.6 626.63 1474.5 626.63L1479.93 626.63C1480.65 626.63 1480.86 626.318 1480.77 625.526L1483 625.526C1483.24 627.614 1482.83 628.718 1481.8 629.15C1482.69 629.942 1483.22 631.262 1483.22 632.894ZM1478.56 629.438L1477.02 629.438L1477.6 632.15C1477.86 633.374 1478.25 634.286 1479.38 634.286C1480.36 634.286 1480.91 633.566 1480.91 632.462C1480.91 630.926 1480.1 629.438 1478.56 629.438ZM1479.83 623.216L1472.85 623.216L1472.85 624.968L1470.4 624.968L1470.4 623.216L1466.7 623.216L1466.7 620.384L1470.4 620.384L1470.4 617.744L1472.85 617.744L1472.85 620.384L1479.38 620.384C1480.5 620.384 1480.62 619.736 1480.62 618.704C1480.62 618.224 1480.6 617.96 1480.55 617.528L1482.98 617.528C1483.07 618.056 1483.14 618.776 1483.14 619.52C1483.14 621.92 1482.4 623.216 1479.83 623.216ZM1483.26 610.16C1483.26 613.76 1480.6 616.28 1476.71 616.28C1473.02 616.28 1470.16 613.784 1470.16 610.28C1470.16 606.632 1472.92 604.688 1476.38 604.688L1477.34 604.688L1477.34 613.52C1479.5 613.304 1480.82 612.008 1480.82 610.16C1480.82 608.744 1480.1 607.616 1478.8 607.232L1479.74 604.76C1481.94 605.648 1483.26 607.64 1483.26 610.16ZM1472.58 610.304C1472.58 611.792 1473.47 612.944 1475.18 613.376L1475.18 607.592C1473.78 607.616 1472.58 608.48 1472.58 610.304ZM1480.6 603.847L1478.87 601.687C1480.1 600.943 1480.91 599.503 1480.91 598.039C1480.91 596.815 1480.48 595.687 1479.35 595.687C1478.27 595.687 1478.15 596.743 1477.74 598.735C1477.34 600.727 1476.83 603.007 1474.14 603.007C1471.84 603.007 1470.16 600.991 1470.16 598.087C1470.16 595.879 1471.14 593.911 1472.54 592.999L1474.29 594.943C1473.16 595.663 1472.51 596.863 1472.51 598.255C1472.51 599.431 1473.04 600.199 1473.88 600.199C1474.79 600.199 1474.96 599.287 1475.3 597.703C1475.75 595.567 1476.21 592.879 1479.09 592.879C1481.63 592.879 1483.26 595.207 1483.26 598.063C1483.26 600.391 1482.33 602.719 1480.6 603.847Z" fill="black"/>
<path d="M1704 759.344L1704 762.368L1686.77 762.368L1686.77 750.872L1689.46 750.872L1689.46 759.344L1694.14 759.344L1694.14 752.24L1696.82 752.24L1696.82 759.344L1704 759.344ZM1689.89 747.665C1689.89 748.649 1689.22 749.345 1688.23 749.345C1687.25 749.345 1686.58 748.649 1686.58 747.665C1686.58 746.681 1687.25 745.985 1688.23 745.985C1689.22 745.985 1689.89 746.681 1689.89 747.665ZM1691.4 746.225L1704 746.225L1704 749.105L1691.4 749.105L1691.4 746.225ZM1704 743.199L1691.4 743.199L1691.4 740.319L1692.74 740.319C1691.9 739.599 1691.16 738.471 1691.16 736.839C1691.16 734.199 1692.98 732.615 1695.7 732.615L1704 732.615L1704 735.495L1696.54 735.495C1694.98 735.495 1693.85 736.119 1693.85 737.703C1693.85 738.999 1694.81 740.319 1696.61 740.319L1704 740.319L1704 743.199ZM1704.22 726.339C1704.22 728.739 1702.75 730.587 1700.5 730.587C1698.1 730.587 1697.04 728.787 1696.54 726.363L1695.82 722.883L1695.6 722.883C1694.4 722.883 1693.66 723.507 1693.66 725.043C1693.66 726.411 1694.28 727.131 1695.5 727.467L1694.88 730.179C1692.79 729.555 1691.16 727.707 1691.16 724.923C1691.16 721.899 1692.6 720.075 1695.5 720.075L1700.93 720.075C1701.65 720.075 1701.86 719.763 1701.77 718.971L1704 718.971C1704.24 721.059 1703.83 722.163 1702.8 722.595C1703.69 723.387 1704.22 724.707 1704.22 726.339ZM1699.56 722.883L1698.02 722.883L1698.6 725.595C1698.86 726.819 1699.25 727.731 1700.38 727.731C1701.36 727.731 1701.91 727.011 1701.91 725.907C1701.91 724.371 1701.1 722.883 1699.56 722.883ZM1686.77 714.045L1704 714.045L1704 716.925L1686.77 716.925L1686.77 714.045ZM1691.38 698.922L1694.26 698.922C1694.21 699.282 1694.18 699.57 1694.18 699.978C1694.18 701.802 1695.36 703.194 1697.38 703.194L1704 703.194L1704 706.074L1691.4 706.074L1691.4 703.194L1693.27 703.194C1692.1 702.642 1691.33 701.346 1691.33 699.738C1691.33 699.402 1691.35 699.138 1691.38 698.922ZM1704.26 692.215C1704.26 695.815 1701.6 698.335 1697.71 698.335C1694.02 698.335 1691.16 695.839 1691.16 692.335C1691.16 688.687 1693.92 686.743 1697.38 686.743L1698.34 686.743L1698.34 695.575C1700.5 695.359 1701.82 694.063 1701.82 692.215C1701.82 690.799 1701.1 689.671 1699.8 689.287L1700.74 686.815C1702.94 687.703 1704.26 689.695 1704.26 692.215ZM1693.58 692.359C1693.58 693.847 1694.47 694.999 1696.18 695.431L1696.18 689.647C1694.78 689.671 1693.58 690.535 1693.58 692.359ZM1704 678.768L1704 681.672L1691.4 686.28L1691.4 683.256L1700.54 680.184L1691.4 677.136L1691.4 674.16L1704 678.768ZM1689.89 671.165C1689.89 672.149 1689.22 672.845 1688.23 672.845C1687.25 672.845 1686.58 672.149 1686.58 671.165C1686.58 670.181 1687.25 669.485 1688.23 669.485C1689.22 669.485 1689.89 670.181 1689.89 671.165ZM1691.4 669.725L1704 669.725L1704 672.605L1691.4 672.605L1691.4 669.725ZM1704.26 661.371C1704.26 664.971 1701.6 667.491 1697.71 667.491C1694.02 667.491 1691.16 664.995 1691.16 661.491C1691.16 657.843 1693.92 655.899 1697.38 655.899L1698.34 655.899L1698.34 664.731C1700.5 664.515 1701.82 663.219 1701.82 661.371C1701.82 659.955 1701.1 658.827 1699.8 658.443L1700.74 655.971C1702.94 656.859 1704.26 658.851 1704.26 661.371ZM1693.58 661.515C1693.58 663.003 1694.47 664.155 1696.18 664.587L1696.18 658.803C1694.78 658.827 1693.58 659.691 1693.58 661.515ZM1691.4 647.855L1691.4 645.479L1699.75 643.223L1691.4 640.991L1691.4 638.135L1704 641.927L1704 644.423L1695.74 646.727L1704 649.031L1704 651.527L1691.4 655.319L1691.4 652.367L1699.75 650.087L1691.4 647.855Z" fill="black"/>
<path d="M1911.24 755.696C1911.24 759.8 1908.91 762.632 1904.16 762.632L1893.77 762.632L1893.77 759.56L1904.06 759.56C1907.21 759.56 1908.53 758 1908.53 755.696C1908.53 753.368 1907.21 751.808 1904.06 751.808L1893.77 751.808L1893.77 748.736L1904.16 748.736C1908.91 748.736 1911.24 751.568 1911.24 755.696ZM1911.26 739.343C1911.26 740.975 1910.62 742.175 1909.68 742.967L1915.32 742.967L1915.32 745.847L1898.4 745.847L1898.4 742.967L1899.74 742.967C1898.81 742.175 1898.16 740.975 1898.16 739.343C1898.16 735.815 1901.14 733.799 1904.71 733.799C1908.29 733.799 1911.26 735.815 1911.26 739.343ZM1904.35 743.039L1905.1 743.039C1907.42 743.039 1908.74 741.695 1908.74 739.919C1908.74 737.831 1907.11 736.703 1904.71 736.703C1902.31 736.703 1900.68 737.831 1900.68 739.919C1900.68 741.695 1901.98 743.039 1904.35 743.039ZM1911.26 726.822C1911.26 730.35 1908.29 732.366 1904.71 732.366C1901.14 732.366 1898.16 730.35 1898.16 726.822C1898.16 725.19 1898.81 723.99 1899.74 723.198L1893.77 723.198L1893.77 720.318L1911 720.318L1911 723.198L1909.68 723.198C1910.62 723.99 1911.26 725.19 1911.26 726.822ZM1904.35 723.126C1901.98 723.126 1900.68 724.47 1900.68 726.246C1900.68 728.334 1902.31 729.462 1904.71 729.462C1907.11 729.462 1908.74 728.334 1908.74 726.246C1908.74 724.47 1907.42 723.126 1905.1 723.126L1904.35 723.126ZM1911.22 713.964C1911.22 716.364 1909.75 718.212 1907.5 718.212C1905.1 718.212 1904.04 716.412 1903.54 713.988L1902.82 710.508L1902.6 710.508C1901.4 710.508 1900.66 711.132 1900.66 712.668C1900.66 714.036 1901.28 714.756 1902.5 715.092L1901.88 717.804C1899.79 717.18 1898.16 715.332 1898.16 712.548C1898.16 709.524 1899.6 707.7 1902.5 707.7L1907.93 707.7C1908.65 707.7 1908.86 707.388 1908.77 706.596L1911 706.596C1911.24 708.684 1910.83 709.788 1909.8 710.22C1910.69 711.012 1911.22 712.332 1911.22 713.964ZM1906.56 710.508L1905.02 710.508L1905.6 713.22C1905.86 714.444 1906.25 715.356 1907.38 715.356C1908.36 715.356 1908.91 714.636 1908.91 713.532C1908.91 711.996 1908.1 710.508 1906.56 710.508ZM1907.83 704.286L1900.85 704.286L1900.85 706.038L1898.4 706.038L1898.4 704.286L1894.7 704.286L1894.7 701.454L1898.4 701.454L1898.4 698.814L1900.85 698.814L1900.85 701.454L1907.38 701.454C1908.5 701.454 1908.62 700.806 1908.62 699.774C1908.62 699.294 1908.6 699.03 1908.55 698.598L1910.98 698.598C1911.07 699.126 1911.14 699.846 1911.14 700.59C1911.14 702.99 1910.4 704.286 1907.83 704.286ZM1911.26 691.23C1911.26 694.83 1908.6 697.35 1904.71 697.35C1901.02 697.35 1898.16 694.854 1898.16 691.35C1898.16 687.702 1900.92 685.758 1904.38 685.758L1905.34 685.758L1905.34 694.59C1907.5 694.374 1908.82 693.078 1908.82 691.23C1908.82 689.814 1908.1 688.686 1906.8 688.302L1907.74 685.83C1909.94 686.718 1911.26 688.71 1911.26 691.23ZM1900.58 691.374C1900.58 692.862 1901.47 694.014 1903.18 694.446L1903.18 688.662C1901.78 688.686 1900.58 689.55 1900.58 691.374ZM1896.89 677.212C1896.89 678.196 1896.22 678.892 1895.23 678.892C1894.25 678.892 1893.58 678.196 1893.58 677.212C1893.58 676.228 1894.25 675.532 1895.23 675.532C1896.22 675.532 1896.89 676.228 1896.89 677.212ZM1898.4 675.772L1911 675.772L1911 678.652L1898.4 678.652L1898.4 675.772ZM1911 672.746L1898.4 672.746L1898.4 669.866L1899.74 669.866C1898.9 669.146 1898.16 668.018 1898.16 666.386C1898.16 663.746 1899.98 662.162 1902.7 662.162L1911 662.162L1911 665.042L1903.54 665.042C1901.98 665.042 1900.85 665.666 1900.85 667.25C1900.85 668.546 1901.81 669.866 1903.61 669.866L1911 669.866L1911 672.746ZM1904.71 652.189C1907.28 652.189 1908.77 650.845 1908.77 648.877C1908.77 647.341 1907.76 646.405 1906.37 646.045L1907.62 643.573C1909.66 644.221 1911.26 646.141 1911.26 648.877C1911.26 652.477 1908.6 655.069 1904.71 655.069C1900.82 655.069 1898.16 652.477 1898.16 648.877C1898.16 646.165 1899.7 644.293 1901.71 643.621L1903.03 646.045C1901.66 646.405 1900.63 647.341 1900.63 648.877C1900.63 650.845 1902.14 652.189 1904.71 652.189ZM1904.71 630.48C1908.62 630.48 1911.26 633 1911.26 636.552C1911.26 640.104 1908.62 642.624 1904.71 642.624C1900.8 642.624 1898.16 640.104 1898.16 636.552C1898.16 633 1900.8 630.48 1904.71 630.48ZM1904.71 639.72C1907.28 639.72 1908.84 638.496 1908.84 636.552C1908.84 634.608 1907.28 633.384 1904.71 633.384C1902.14 633.384 1900.58 634.608 1900.58 636.552C1900.58 638.496 1902.14 639.72 1904.71 639.72ZM1911 628.238L1898.4 628.238L1898.4 625.358L1899.74 625.358C1898.9 624.638 1898.16 623.51 1898.16 621.878C1898.16 619.238 1899.98 617.654 1902.7 617.654L1911 617.654L1911 620.534L1903.54 620.534C1901.98 620.534 1900.85 621.158 1900.85 622.742C1900.85 624.038 1901.81 625.358 1903.61 625.358L1911 625.358L1911 628.238ZM1907.83 614.451L1900.85 614.451L1900.85 616.203L1898.4 616.203L1898.4 614.451L1894.7 614.451L1894.7 611.619L1898.4 611.619L1898.4 608.979L1900.85 608.979L1900.85 611.619L1907.38 611.619C1908.5 611.619 1908.62 610.971 1908.62 609.939C1908.62 609.459 1908.6 609.195 1908.55 608.763L1910.98 608.763C1911.07 609.291 1911.14 610.011 1911.14 610.755C1911.14 613.155 1910.4 614.451 1907.83 614.451ZM1911.26 601.394C1911.26 604.994 1908.6 607.514 1904.71 607.514C1901.02 607.514 1898.16 605.018 1898.16 601.514C1898.16 597.866 1900.92 595.922 1904.38 595.922L1905.34 595.922L1905.34 604.754C1907.5 604.538 1908.82 603.242 1908.82 601.394C1908.82 599.978 1908.1 598.85 1906.8 598.466L1907.74 595.994C1909.94 596.882 1911.26 598.874 1911.26 601.394ZM1900.58 601.538C1900.58 603.026 1901.47 604.178 1903.18 604.61L1903.18 598.826C1901.78 598.85 1900.58 599.714 1900.58 601.538ZM1911 593.761L1898.4 593.761L1898.4 590.881L1899.74 590.881C1898.9 590.161 1898.16 589.033 1898.16 587.401C1898.16 584.761 1899.98 583.177 1902.7 583.177L1911 583.177L1911 586.057L1903.54 586.057C1901.98 586.057 1900.85 586.681 1900.85 588.265C1900.85 589.561 1901.81 590.881 1903.61 590.881L1911 590.881L1911 593.761ZM1893.53 574.406L1896.05 574.406C1896.02 574.742 1896.02 574.91 1896.02 575.27C1896.02 576.398 1896.36 577.022 1897.8 577.022L1898.4 577.022L1898.4 574.454L1900.85 574.454L1900.85 577.022L1911 577.022L1911 579.902L1900.85 579.902L1900.85 581.654L1898.4 581.654L1898.4 579.902L1897.58 579.902C1894.97 579.902 1893.5 578.438 1893.5 575.606C1893.5 575.15 1893.5 574.934 1893.53 574.406ZM1898.4 562.32L1911 562.32L1911 565.2L1909.66 565.2C1910.5 565.92 1911.26 567 1911.26 568.632C1911.26 571.272 1909.46 572.904 1906.75 572.904L1898.4 572.904L1898.4 570.024L1906.13 570.024C1907.66 570.024 1908.65 569.352 1908.65 567.792C1908.65 566.496 1907.69 565.2 1905.89 565.2L1898.4 565.2L1898.4 562.32ZM1893.77 556.405L1911 556.405L1911 559.285L1893.77 559.285L1893.77 556.405Z" fill="black"/>
<path d="M200.632 873V855.768H206.392C211.744 855.768 215.056 859.128 215.056 864.384C215.056 869.64 211.744 873 206.392 873H200.632ZM203.632 870.36H206.392C209.944 870.36 212.032 868.008 212.032 864.384C212.032 860.736 209.944 858.408 206.368 858.408H203.632V870.36ZM220.676 873.216C218.276 873.216 216.428 871.752 216.428 869.496C216.428 867.096 218.228 866.04 220.652 865.536L224.132 864.816V864.6C224.132 863.4 223.508 862.656 221.972 862.656C220.604 862.656 219.884 863.28 219.548 864.504L216.836 863.88C217.46 861.792 219.308 860.16 222.092 860.16C225.116 860.16 226.94 861.6 226.94 864.504V869.928C226.94 870.648 227.252 870.864 228.044 870.768V873C225.956 873.24 224.852 872.832 224.42 871.8C223.628 872.688 222.308 873.216 220.676 873.216ZM224.132 868.56V867.024L221.42 867.6C220.196 867.864 219.284 868.248 219.284 869.376C219.284 870.36 220.004 870.912 221.108 870.912C222.644 870.912 224.132 870.096 224.132 868.56ZM235.328 874.176C234.608 876.096 233.504 877.416 230.888 877.416C230.288 877.416 230.12 877.392 229.712 877.344V874.92C230.096 874.968 230.312 874.992 230.672 874.992C231.632 874.992 232.088 874.728 232.496 873.72L232.976 872.544L228.392 860.4H231.416L234.512 869.232L237.536 860.4H240.512L235.328 874.176ZM250.876 855.648H253.204V873H250.132V861.048H245.98V858.768L247.66 858.624C249.82 858.432 250.708 857.688 250.876 855.648Z" fill="black"/>
<path d="M514.632 873V855.768H520.392C525.744 855.768 529.056 859.128 529.056 864.384C529.056 869.64 525.744 873 520.392 873H514.632ZM517.632 870.36H520.392C523.944 870.36 526.032 868.008 526.032 864.384C526.032 860.736 523.944 858.408 520.368 858.408H517.632V870.36ZM534.676 873.216C532.276 873.216 530.428 871.752 530.428 869.496C530.428 867.096 532.228 866.04 534.652 865.536L538.132 864.816V864.6C538.132 863.4 537.508 862.656 535.972 862.656C534.604 862.656 533.884 863.28 533.548 864.504L530.836 863.88C531.46 861.792 533.308 860.16 536.092 860.16C539.116 860.16 540.94 861.6 540.94 864.504V869.928C540.94 870.648 541.252 870.864 542.044 870.768V873C539.956 873.24 538.852 872.832 538.42 871.8C537.628 872.688 536.308 873.216 534.676 873.216ZM538.132 868.56V867.024L535.42 867.6C534.196 867.864 533.284 868.248 533.284 869.376C533.284 870.36 534.004 870.912 535.108 870.912C536.644 870.912 538.132 870.096 538.132 868.56ZM549.328 874.176C548.608 876.096 547.504 877.416 544.888 877.416C544.288 877.416 544.12 877.392 543.712 877.344V874.92C544.096 874.968 544.312 874.992 544.672 874.992C545.632 874.992 546.088 874.728 546.496 873.72L546.976 872.544L542.392 860.4H545.416L548.512 869.232L551.536 860.4H554.512L549.328 874.176ZM560.388 873V870.432L566.244 864.816C568.788 862.392 569.172 861.792 569.172 860.448C569.172 859.176 568.092 858.12 566.316 858.12C564.468 858.12 563.268 859.344 563.268 861.48L560.412 861C560.412 857.976 562.908 855.504 566.364 855.504C569.94 855.504 572.22 857.52 572.22 860.256C572.22 862.272 571.572 863.4 568.092 866.664L564.18 870.312H572.436V873H560.388Z" fill="black"/>
<path d="M1842.63 873V855.768H1848.39C1853.74 855.768 1857.06 859.128 1857.06 864.384C1857.06 869.64 1853.74 873 1848.39 873H1842.63ZM1845.63 870.36H1848.39C1851.94 870.36 1854.03 868.008 1854.03 864.384C1854.03 860.736 1851.94 858.408 1848.37 858.408H1845.63V870.36ZM1862.68 873.216C1860.28 873.216 1858.43 871.752 1858.43 869.496C1858.43 867.096 1860.23 866.04 1862.65 865.536L1866.13 864.816V864.6C1866.13 863.4 1865.51 862.656 1863.97 862.656C1862.6 862.656 1861.88 863.28 1861.55 864.504L1858.84 863.88C1859.46 861.792 1861.31 860.16 1864.09 860.16C1867.12 860.16 1868.94 861.6 1868.94 864.504V869.928C1868.94 870.648 1869.25 870.864 1870.04 870.768V873C1867.96 873.24 1866.85 872.832 1866.42 871.8C1865.63 872.688 1864.31 873.216 1862.68 873.216ZM1866.13 868.56V867.024L1863.42 867.6C1862.2 867.864 1861.28 868.248 1861.28 869.376C1861.28 870.36 1862 870.912 1863.11 870.912C1864.64 870.912 1866.13 870.096 1866.13 868.56ZM1877.33 874.176C1876.61 876.096 1875.5 877.416 1872.89 877.416C1872.29 877.416 1872.12 877.392 1871.71 877.344V874.92C1872.1 874.968 1872.31 874.992 1872.67 874.992C1873.63 874.992 1874.09 874.728 1874.5 873.72L1874.98 872.544L1870.39 860.4H1873.42L1876.51 869.232L1879.54 860.4H1882.51L1877.33 874.176ZM1891.27 873C1891.27 866.832 1892.85 862.344 1896.55 858.456H1887.74V855.768H1899.86V858.432C1895.47 862.944 1894.39 867.072 1894.39 873H1891.27Z" fill="black"/>
<path d="M439.768 757.232L439.768 753.752L457 747.224L457 750.32L453.064 751.808L453.064 759.248L457 760.712L457 763.76L439.768 757.232ZM443.176 755.552L450.376 758.24L450.376 752.816L443.176 755.552ZM444.4 735.453L457 735.453L457 738.333L455.656 738.333C456.496 739.053 457.264 740.133 457.264 741.765C457.264 744.405 455.464 746.037 452.752 746.037L444.4 746.037L444.4 743.157L452.128 743.157C453.664 743.157 454.648 742.485 454.648 740.925C454.648 739.629 453.688 738.333 451.888 738.333L444.4 738.333L444.4 735.453ZM457.264 727.666C457.264 731.194 454.288 733.21 450.712 733.21C447.136 733.21 444.16 731.194 444.16 727.666C444.16 726.034 444.808 724.834 445.744 724.042L439.768 724.042L439.768 721.162L457 721.162L457 724.042L455.68 724.042C456.616 724.834 457.264 726.034 457.264 727.666ZM450.352 723.97C447.976 723.97 446.68 725.314 446.68 727.09C446.68 729.178 448.312 730.306 450.712 730.306C453.112 730.306 454.744 729.178 454.744 727.09C454.744 725.314 453.424 723.97 451.096 723.97L450.352 723.97ZM442.888 716.704C442.888 717.688 442.216 718.384 441.232 718.384C440.248 718.384 439.576 717.688 439.576 716.704C439.576 715.72 440.248 715.024 441.232 715.024C442.216 715.024 442.888 715.72 442.888 716.704ZM444.4 715.264L457 715.264L457 718.144L444.4 718.144L444.4 715.264ZM453.832 711.974L446.848 711.974L446.848 713.726L444.4 713.726L444.4 711.974L440.704 711.974L440.704 709.142L444.4 709.142L444.4 706.502L446.848 706.502L446.848 709.142L453.376 709.142C454.504 709.142 454.624 708.494 454.624 707.462C454.624 706.982 454.6 706.718 454.552 706.286L456.976 706.286C457.072 706.814 457.144 707.534 457.144 708.278C457.144 710.678 456.4 711.974 453.832 711.974ZM454.6 705.449L452.872 703.289C454.096 702.545 454.912 701.105 454.912 699.641C454.912 698.417 454.48 697.289 453.352 697.289C452.272 697.289 452.152 698.345 451.744 700.337C451.336 702.329 450.832 704.609 448.144 704.609C445.84 704.609 444.16 702.593 444.16 699.689C444.16 697.481 445.144 695.513 446.536 694.601L448.288 696.545C447.16 697.265 446.512 698.465 446.512 699.857C446.512 701.033 447.04 701.801 447.88 701.801C448.792 701.801 448.96 700.889 449.296 699.305C449.752 697.169 450.208 694.481 453.088 694.481C455.632 694.481 457.264 696.809 457.264 699.665C457.264 701.993 456.328 704.321 454.6 705.449Z" fill="black"/>
<path d="M982.768 759.608L1000 759.608L1000 762.488L982.768 762.488L982.768 759.608ZM1000.26 751.254C1000.26 754.854 997.6 757.374 993.712 757.374C990.016 757.374 987.16 754.878 987.16 751.374C987.16 747.726 989.92 745.782 993.376 745.782L994.336 745.782L994.336 754.614C996.496 754.398 997.816 753.102 997.816 751.254C997.816 749.838 997.096 748.71 995.8 748.326L996.736 745.854C998.944 746.742 1000.26 748.734 1000.26 751.254ZM989.584 751.398C989.584 752.886 990.472 754.038 992.176 754.47L992.176 748.686C990.784 748.71 989.584 749.574 989.584 751.398ZM998.728 732.413C1002.45 732.413 1004.58 734.957 1004.58 738.557C1004.58 741.461 1003.36 743.501 1000.91 744.293L999.952 741.605C1001.37 741.221 1002.26 740.141 1002.26 738.557C1002.26 736.613 1001.3 735.293 998.992 735.293L998.104 735.293C998.992 735.965 999.688 737.237 999.688 738.845C999.688 742.301 996.88 744.365 993.424 744.365C989.968 744.365 987.16 742.301 987.16 738.845C987.16 737.261 987.856 735.965 988.744 735.293L987.4 735.293L987.4 732.413L998.728 732.413ZM993.304 735.245C991 735.245 989.68 736.493 989.68 738.293C989.68 740.285 991.072 741.461 993.424 741.461C995.752 741.461 997.168 740.285 997.168 738.293C997.168 736.493 995.848 735.245 993.592 735.245L993.304 735.245ZM1000.22 726.035C1000.22 728.435 998.752 730.283 996.496 730.283C994.096 730.283 993.04 728.483 992.536 726.059L991.816 722.579L991.6 722.579C990.4 722.579 989.656 723.203 989.656 724.739C989.656 726.107 990.28 726.827 991.504 727.163L990.88 729.875C988.792 729.251 987.16 727.403 987.16 724.619C987.16 721.595 988.6 719.771 991.504 719.771L996.928 719.771C997.648 719.771 997.864 719.459 997.768 718.667L1000 718.667C1000.24 720.755 999.832 721.859 998.8 722.291C999.688 723.083 1000.22 724.403 1000.22 726.035ZM995.56 722.579L994.024 722.579L994.6 725.291C994.864 726.515 995.248 727.427 996.376 727.427C997.36 727.427 997.912 726.707 997.912 725.603C997.912 724.067 997.096 722.579 995.56 722.579ZM982.768 713.741L1000 713.741L1000 716.621L982.768 716.621L982.768 713.741Z" fill="black"/>
<path d="M1239.71 760.4C1242.28 760.4 1243.77 759.056 1243.77 757.088C1243.77 755.552 1242.76 754.616 1241.37 754.256L1242.62 751.784C1244.66 752.432 1246.26 754.352 1246.26 757.088C1246.26 760.688 1243.6 763.28 1239.71 763.28C1235.82 763.28 1233.16 760.688 1233.16 757.088C1233.16 754.376 1234.7 752.504 1236.71 751.832L1238.03 754.256C1236.66 754.616 1235.63 755.552 1235.63 757.088C1235.63 759.056 1237.14 760.4 1239.71 760.4ZM1239.71 738.691C1243.62 738.691 1246.26 741.211 1246.26 744.763C1246.26 748.315 1243.62 750.835 1239.71 750.835C1235.8 750.835 1233.16 748.315 1233.16 744.763C1233.16 741.211 1235.8 738.691 1239.71 738.691ZM1239.71 747.931C1242.28 747.931 1243.84 746.707 1243.84 744.763C1243.84 742.819 1242.28 741.595 1239.71 741.595C1237.14 741.595 1235.58 742.819 1235.58 744.763C1235.58 746.707 1237.14 747.931 1239.71 747.931ZM1238.61 733.569L1246 733.569L1246 736.449L1233.4 736.449L1233.4 733.569L1234.74 733.569C1233.9 732.873 1233.16 731.793 1233.16 730.113C1233.16 728.601 1233.83 727.473 1234.91 726.777C1234.1 726.009 1233.16 724.809 1233.16 722.865C1233.16 720.273 1234.98 718.593 1237.7 718.593L1246 718.593L1246 721.473L1238.54 721.473C1236.98 721.473 1235.85 722.049 1235.85 723.585C1235.85 724.809 1236.81 726.081 1238.61 726.081L1246 726.081L1246 728.961L1238.54 728.961C1236.98 728.961 1235.85 729.537 1235.85 731.073C1235.85 732.297 1236.81 733.569 1238.61 733.569ZM1246.26 709.156C1246.26 710.788 1245.62 711.988 1244.68 712.78L1250.32 712.78L1250.32 715.66L1233.4 715.66L1233.4 712.78L1234.74 712.78C1233.81 711.988 1233.16 710.788 1233.16 709.156C1233.16 705.628 1236.14 703.612 1239.71 703.612C1243.29 703.612 1246.26 705.628 1246.26 709.156ZM1239.35 712.852L1240.1 712.852C1242.42 712.852 1243.74 711.508 1243.74 709.732C1243.74 707.644 1242.11 706.516 1239.71 706.516C1237.31 706.516 1235.68 707.644 1235.68 709.732C1235.68 711.508 1236.98 712.852 1239.35 712.852ZM1228.77 698.506L1246 698.506L1246 701.386L1228.77 701.386L1228.77 698.506ZM1231.89 694.04C1231.89 695.024 1231.22 695.72 1230.23 695.72C1229.25 695.72 1228.58 695.024 1228.58 694.04C1228.58 693.056 1229.25 692.36 1230.23 692.36C1231.22 692.36 1231.89 693.056 1231.89 694.04ZM1233.4 692.6L1246 692.6L1246 695.48L1233.4 695.48L1233.4 692.6ZM1246.22 686.238C1246.22 688.638 1244.75 690.486 1242.5 690.486C1240.1 690.486 1239.04 688.686 1238.54 686.262L1237.82 682.782L1237.6 682.782C1236.4 682.782 1235.66 683.406 1235.66 684.942C1235.66 686.31 1236.28 687.03 1237.5 687.366L1236.88 690.078C1234.79 689.454 1233.16 687.606 1233.16 684.822C1233.16 681.798 1234.6 679.974 1237.5 679.974L1242.93 679.974C1243.65 679.974 1243.86 679.662 1243.77 678.87L1246 678.87C1246.24 680.958 1245.83 682.062 1244.8 682.494C1245.69 683.286 1246.22 684.606 1246.22 686.238ZM1241.56 682.782L1240.02 682.782L1240.6 685.494C1240.86 686.718 1241.25 687.63 1242.38 687.63C1243.36 687.63 1243.91 686.91 1243.91 685.806C1243.91 684.27 1243.1 682.782 1241.56 682.782ZM1246 676.824L1233.4 676.824L1233.4 673.944L1234.74 673.944C1233.9 673.224 1233.16 672.096 1233.16 670.464C1233.16 667.824 1234.98 666.24 1237.7 666.24L1246 666.24L1246 669.12L1238.54 669.12C1236.98 669.12 1235.85 669.744 1235.85 671.328C1235.85 672.624 1236.81 673.944 1238.61 673.944L1246 673.944L1246 676.824ZM1239.71 661.212C1242.28 661.212 1243.77 659.868 1243.77 657.9C1243.77 656.364 1242.76 655.428 1241.37 655.068L1242.62 652.596C1244.66 653.244 1246.26 655.164 1246.26 657.9C1246.26 661.5 1243.6 664.092 1239.71 664.092C1235.82 664.092 1233.16 661.5 1233.16 657.9C1233.16 655.188 1234.7 653.316 1236.71 652.644L1238.03 655.068C1236.66 655.428 1235.63 656.364 1235.63 657.9C1235.63 659.868 1237.14 661.212 1239.71 661.212ZM1246.26 645.527C1246.26 649.127 1243.6 651.647 1239.71 651.647C1236.02 651.647 1233.16 649.151 1233.16 645.647C1233.16 641.999 1235.92 640.055 1239.38 640.055L1240.34 640.055L1240.34 648.887C1242.5 648.671 1243.82 647.375 1243.82 645.527C1243.82 644.111 1243.1 642.983 1241.8 642.599L1242.74 640.127C1244.94 641.015 1246.26 643.007 1246.26 645.527ZM1235.58 645.671C1235.58 647.159 1236.47 648.311 1238.18 648.743L1238.18 642.959C1236.78 642.983 1235.58 643.847 1235.58 645.671Z" fill="black"/>
<circle cx="425" cy="803" r="21" fill="white" stroke="black" stroke-width="2"/>
<circle cx="540" cy="803" r="21" fill="black" stroke="black" stroke-width="2"/>
<circle cx="1439" cy="803" r="21" fill="white" stroke="black" stroke-width="2"/>
<circle cx="1660" cy="803" r="21" fill="white" stroke="black" stroke-width="2"/>
<circle cx="1867" cy="803" r="21" fill="white" stroke="black" stroke-width="2"/>
<circle cx="671" cy="803" r="21" fill="white" stroke="black" stroke-width="2"/>
<circle cx="963" cy="803" r="21" fill="white" stroke="black" stroke-width="2"/>
<circle cx="1214" cy="803" r="21" fill="white" stroke="black" stroke-width="2"/>
<path d="M422 779L422 780L424 780L424 779L423 779L422 779ZM423 320.333C425.945 320.333 428.333 317.946 428.333 315C428.333 312.054 425.945 309.667 423 309.667C420.054 309.667 417.667 312.054 417.667 315C417.667 317.946 420.054 320.333 423 320.333ZM423 779L424 779L424 315L423 315L422 315L422 779L423 779Z" fill="black"/>
<path d="M539 781L539 782L541 782L541 781L540 781L539 781ZM540 422.333C542.946 422.333 545.333 419.946 545.333 417C545.333 414.054 542.946 411.667 540 411.667C537.054 411.667 534.667 414.054 534.667 417C534.667 419.946 537.054 422.333 540 422.333ZM540 781L541 781L541 417L540 417L539 417L539 781L540 781Z" fill="black"/>
<path d="M1439 781L1439 554" stroke="black" stroke-width="2"/>
<path d="M1660 781L1660 554" stroke="black" stroke-width="2"/>
<path d="M1866 781L1866 782L1868 782L1868 781L1867 781L1866 781ZM1867 422.333C1869.95 422.333 1872.33 419.946 1872.33 417C1872.33 414.054 1869.95 411.667 1867 411.667C1864.05 411.667 1861.67 414.054 1861.67 417C1861.67 419.946 1864.05 422.333 1867 422.333ZM1867 781L1868 781L1868 417L1867 417L1866 417L1866 781L1867 781Z" fill="black"/>
<path d="M962 781L962 782L964 782L964 781L963 781L962 781ZM963 531.333C965.946 531.333 968.333 528.946 968.333 526C968.333 523.054 965.946 520.667 963 520.667C960.054 520.667 957.667 523.054 957.667 526C957.667 528.946 960.054 531.333 963 531.333ZM963 781L964 781L964 526L963 526L962 526L962 781L963 781Z" fill="black"/>
<path d="M1549 554L1549 555L1551 555L1551 554L1550 554L1549 554ZM1550 422.333C1552.95 422.333 1555.33 419.946 1555.33 417C1555.33 414.054 1552.95 411.667 1550 411.667C1547.05 411.667 1544.67 414.054 1544.67 417C1544.67 419.946 1547.05 422.333 1550 422.333ZM1550 554L1551 554L1551 417L1550 417L1549 417L1549 554L1550 554Z" fill="black"/>
<path d="M671 781L671 591" stroke="black" stroke-width="2"/>
<path d="M671 591L1214 591" stroke="black" stroke-width="2"/>
<path d="M1439 554L1660 554" stroke="black" stroke-width="2"/>
<path d="M963 781L963 653" stroke="black" stroke-width="2"/>
<path d="M1214 781L1214 591" stroke="black" stroke-width="2"/>
<path fill-rule="evenodd" clip-rule="evenodd" d="M425 803C430.274 803 435 806.362 435 811C435 811.552 434.552 812 434 812H416C415.448 812 415 811.552 415 811C415 806.362 419.726 803 425 803ZM425 805C420.841 805 417.744 807.308 417.118 810H432.882C432.256 807.308 429.159 805 425 805Z" fill="black" fill-opacity="0.9"/>
<path fill-rule="evenodd" clip-rule="evenodd" d="M425 793.5C427.209 793.5 429 795.291 429 797.5C429 799.709 427.209 801.5 425 801.5C422.791 801.5 421 799.709 421 797.5C421 795.291 422.791 793.5 425 793.5ZM425 795.5C423.895 795.5 423 796.395 423 797.5C423 798.605 423.895 799.5 425 799.5C426.105 799.5 427 798.605 427 797.5C427 796.395 426.105 795.5 425 795.5Z" fill="black" fill-opacity="0.9"/>
<path fill-rule="evenodd" clip-rule="evenodd" d="M541 792C541 795.737 541.911 798.174 543.488 799.692C545.074 801.218 547.521 802 551 802V804C547.521 804 545.074 804.782 543.488 806.308C541.911 807.826 541 810.263 541 814H539C539 810.521 538.218 808.074 536.692 806.488C535.174 804.911 532.737 804 529 804V802C532.737 802 535.174 801.089 536.692 799.512C538.218 797.926 539 795.479 539 792H541ZM540.001 797.975C539.55 799.085 538.936 800.065 538.134 800.898C537.264 801.802 536.208 802.498 534.971 803C536.208 803.502 537.264 804.198 538.134 805.102C538.935 805.935 539.55 806.914 540.001 808.024C540.503 806.789 541.199 805.735 542.102 804.866C542.934 804.065 543.912 803.451 545.021 803C543.912 802.549 542.934 801.935 542.102 801.134C541.199 800.265 540.503 799.211 540.001 797.975Z" fill="white" fill-opacity="0.95"/>
<path fill-rule="evenodd" clip-rule="evenodd" d="M671 803C676.274 803 681 806.362 681 811C681 811.552 680.552 812 680 812H662C661.448 812 661 811.552 661 811C661 806.362 665.726 803 671 803ZM671 805C666.841 805 663.744 807.308 663.118 810H678.882C678.256 807.308 675.159 805 671 805Z" fill="black" fill-opacity="0.9"/>
<path fill-rule="evenodd" clip-rule="evenodd" d="M671 793.5C673.209 793.5 675 795.291 675 797.5C675 799.709 673.209 801.5 671 801.5C668.791 801.5 667 799.709 667 797.5C667 795.291 668.791 793.5 671 793.5ZM671 795.5C669.895 795.5 669 796.395 669 797.5C669 798.605 669.895 799.5 671 799.5C672.105 799.5 673 798.605 673 797.5C673 796.395 672.105 795.5 671 795.5Z" fill="black" fill-opacity="0.9"/>
<path fill-rule="evenodd" clip-rule="evenodd" d="M963 803C968.274 803 973 806.362 973 811C973 811.552 972.552 812 972 812H954C953.448 812 953 811.552 953 811C953 806.362 957.726 803 963 803ZM963 805C958.841 805 955.744 807.308 955.118 810H970.882C970.256 807.308 967.159 805 963 805Z" fill="black" fill-opacity="0.9"/>
<path fill-rule="evenodd" clip-rule="evenodd" d="M963 793.5C965.209 793.5 967 795.291 967 797.5C967 799.709 965.209 801.5 963 801.5C960.791 801.5 959 799.709 959 797.5C959 795.291 960.791 793.5 963 793.5ZM963 795.5C961.895 795.5 961 796.395 961 797.5C961 798.605 961.895 799.5 963 799.5C964.105 799.5 965 798.605 965 797.5C965 796.395 964.105 795.5 963 795.5Z" fill="black" fill-opacity="0.9"/>
<path fill-rule="evenodd" clip-rule="evenodd" d="M1214 803C1219.27 803 1224 806.362 1224 811C1224 811.552 1223.55 812 1223 812H1205C1204.45 812 1204 811.552 1204 811C1204 806.362 1208.73 803 1214 803ZM1214 805C1209.84 805 1206.74 807.308 1206.12 810H1221.88C1221.26 807.308 1218.16 805 1214 805Z" fill="black" fill-opacity="0.9"/>
<path fill-rule="evenodd" clip-rule="evenodd" d="M1214 793.5C1216.21 793.5 1218 795.291 1218 797.5C1218 799.709 1216.21 801.5 1214 801.5C1211.79 801.5 1210 799.709 1210 797.5C1210 795.291 1211.79 793.5 1214 793.5ZM1214 795.5C1212.9 795.5 1212 796.395 1212 797.5C1212 798.605 1212.9 799.5 1214 799.5C1215.1 799.5 1216 798.605 1216 797.5C1216 796.395 1215.1 795.5 1214 795.5Z" fill="black" fill-opacity="0.9"/>
<path fill-rule="evenodd" clip-rule="evenodd" d="M1439 803C1444.27 803 1449 806.362 1449 811C1449 811.552 1448.55 812 1448 812H1430C1429.45 812 1429 811.552 1429 811C1429 806.362 1433.73 803 1439 803ZM1439 805C1434.84 805 1431.74 807.308 1431.12 810H1446.88C1446.26 807.308 1443.16 805 1439 805Z" fill="black" fill-opacity="0.9"/>
<path fill-rule="evenodd" clip-rule="evenodd" d="M1439 793.5C1441.21 793.5 1443 795.291 1443 797.5C1443 799.709 1441.21 801.5 1439 801.5C1436.79 801.5 1435 799.709 1435 797.5C1435 795.291 1436.79 793.5 1439 793.5ZM1439 795.5C1437.9 795.5 1437 796.395 1437 797.5C1437 798.605 1437.9 799.5 1439 799.5C1440.1 799.5 1441 798.605 1441 797.5C1441 796.395 1440.1 795.5 1439 795.5Z" fill="black" fill-opacity="0.9"/>
<path fill-rule="evenodd" clip-rule="evenodd" d="M1660 803C1665.27 803 1670 806.362 1670 811C1670 811.552 1669.55 812 1669 812H1651C1650.45 812 1650 811.552 1650 811C1650 806.362 1654.73 803 1660 803ZM1660 805C1655.84 805 1652.74 807.308 1652.12 810H1667.88C1667.26 807.308 1664.16 805 1660 805Z" fill="black" fill-opacity="0.9"/>
<path fill-rule="evenodd" clip-rule="evenodd" d="M1660 793.5C1662.21 793.5 1664 795.291 1664 797.5C1664 799.709 1662.21 801.5 1660 801.5C1657.79 801.5 1656 799.709 1656 797.5C1656 795.291 1657.79 793.5 1660 793.5ZM1660 795.5C1658.9 795.5 1658 796.395 1658 797.5C1658 798.605 1658.9 799.5 1660 799.5C1661.1 799.5 1662 798.605 1662 797.5C1662 796.395 1661.1 795.5 1660 795.5Z" fill="black" fill-opacity="0.9"/>
<path fill-rule="evenodd" clip-rule="evenodd" d="M1867 803C1872.27 803 1877 806.362 1877 811C1877 811.552 1876.55 812 1876 812H1858C1857.45 812 1857 811.552 1857 811C1857 806.362 1861.73 803 1867 803ZM1867 805C1862.84 805 1859.74 807.308 1859.12 810H1874.88C1874.26 807.308 1871.16 805 1867 805Z" fill="black" fill-opacity="0.9"/>
<path fill-rule="evenodd" clip-rule="evenodd" d="M1867 793.5C1869.21 793.5 1871 795.291 1871 797.5C1871 799.709 1869.21 801.5 1867 801.5C1864.79 801.5 1863 799.709 1863 797.5C1863 795.291 1864.79 793.5 1867 793.5ZM1867 795.5C1865.9 795.5 1865 796.395 1865 797.5C1865 798.605 1865.9 799.5 1867 799.5C1868.1 799.5 1869 798.605 1869 797.5C1869 796.395 1868.1 795.5 1867 795.5Z" fill="black" fill-opacity="0.9"/>
</svg>
