<svg width="245" height="32" viewBox="0 0 245 32" fill="none" xmlns="http://www.w3.org/2000/svg">
<path d="M32 5.34776V26.6522C32 29.6049 29.6072 32 26.6522 32H5.34776C2.39512 32 0 29.6072 0 26.6522V5.34776C0 2.39397 2.39397 0 5.34776 0H26.6522C29.606 0 32 2.39281 32 5.34776ZM26.1801 7.50857C26.1801 6.57591 25.4241 5.82101 24.4926 5.82101H7.50741C6.57476 5.82101 5.81986 6.57707 5.81986 7.50857V24.4961C5.81986 25.4276 6.57591 26.1836 7.50741 26.1836H24.4937C25.4252 26.1836 26.1813 25.4276 26.1813 24.4961L26.1801 7.50857ZM11.6351 12.6105C11.6351 12.0726 12.068 11.6363 12.6024 11.6363H19.393C19.9286 11.6363 20.3603 12.0726 20.3603 12.6105V19.3907C20.3603 19.9286 19.9297 20.3649 19.393 20.3649H12.6024C12.0668 20.3649 11.6351 19.9286 11.6351 19.3907V12.6105Z" fill="black"/>
<path d="M59.9223 11.456H54.3783V26H51.3063V11.456H45.7623V8.768H59.9223V11.456ZM66.6757 13.376V16.256C66.3157 16.208 66.0277 16.184 65.6197 16.184C63.7957 16.184 62.4037 17.36 62.4037 19.376V26H59.5237V13.4H62.4037V15.272C62.9557 14.096 64.2517 13.328 65.8597 13.328C66.1957 13.328 66.4597 13.352 66.6757 13.376ZM79.1523 13.4V26H76.2723V24.656C75.5523 25.496 74.4723 26.264 72.8403 26.264C70.2003 26.264 68.5683 24.464 68.5683 21.752V13.4H71.4483V21.128C71.4483 22.664 72.1203 23.648 73.6803 23.648C74.9763 23.648 76.2723 22.688 76.2723 20.888V13.4H79.1523ZM80.8678 23.6L83.0278 21.872C83.7718 23.096 85.2118 23.912 86.6758 23.912C87.8998 23.912 89.0278 23.48 89.0278 22.352C89.0278 21.272 87.9718 21.152 85.9798 20.744C83.9878 20.336 81.7078 19.832 81.7078 17.144C81.7078 14.84 83.7238 13.16 86.6278 13.16C88.8358 13.16 90.8038 14.144 91.7158 15.536L89.7718 17.288C89.0518 16.16 87.8518 15.512 86.4598 15.512C85.2838 15.512 84.5158 16.04 84.5158 16.88C84.5158 17.792 85.4278 17.96 87.0118 18.296C89.1478 18.752 91.8358 19.208 91.8358 22.088C91.8358 24.632 89.5078 26.264 86.6518 26.264C84.3238 26.264 81.9958 25.328 80.8678 23.6ZM94.3112 22.832V15.848H92.5592V13.4H94.3112V9.704H97.1432V13.4H99.7832V15.848H97.1432V22.376C97.1432 23.504 97.7912 23.624 98.8232 23.624C99.3032 23.624 99.5672 23.6 99.9992 23.552V25.976C99.4712 26.072 98.7512 26.144 98.0072 26.144C95.6072 26.144 94.3112 25.4 94.3112 22.832ZM107.222 26V8.768H112.982C118.334 8.768 121.646 12.128 121.646 17.384C121.646 22.64 118.334 26 112.982 26H107.222ZM110.222 23.36H112.982C116.534 23.36 118.622 21.008 118.622 17.384C118.622 13.736 116.534 11.408 112.958 11.408H110.222V23.36ZM129.258 26.264C125.658 26.264 123.138 23.6 123.138 19.712C123.138 16.016 125.634 13.16 129.138 13.16C132.786 13.16 134.73 15.92 134.73 19.376V20.336H125.898C126.114 22.496 127.41 23.816 129.258 23.816C130.674 23.816 131.802 23.096 132.186 21.8L134.658 22.736C133.77 24.944 131.778 26.264 129.258 26.264ZM129.114 15.584C127.626 15.584 126.474 16.472 126.042 18.176H131.826C131.802 16.784 130.938 15.584 129.114 15.584ZM135.571 23.6L137.731 21.872C138.475 23.096 139.915 23.912 141.379 23.912C142.603 23.912 143.731 23.48 143.731 22.352C143.731 21.272 142.675 21.152 140.683 20.744C138.691 20.336 136.411 19.832 136.411 17.144C136.411 14.84 138.427 13.16 141.331 13.16C143.539 13.16 145.507 14.144 146.419 15.536L144.475 17.288C143.755 16.16 142.555 15.512 141.163 15.512C139.987 15.512 139.219 16.04 139.219 16.88C139.219 17.792 140.131 17.96 141.715 18.296C143.851 18.752 146.539 19.208 146.539 22.088C146.539 24.632 144.211 26.264 141.355 26.264C139.027 26.264 136.699 25.328 135.571 23.6ZM150.19 11.888C149.206 11.888 148.51 11.216 148.51 10.232C148.51 9.248 149.206 8.576 150.19 8.576C151.174 8.576 151.87 9.248 151.87 10.232C151.87 11.216 151.174 11.888 150.19 11.888ZM151.63 13.4V26H148.75V13.4H151.63ZM165.865 24.728C165.865 28.448 163.321 30.584 159.721 30.584C156.817 30.584 154.777 29.36 153.985 26.912L156.673 25.952C157.057 27.368 158.137 28.256 159.721 28.256C161.665 28.256 162.985 27.296 162.985 24.992V24.104C162.313 24.992 161.041 25.688 159.433 25.688C155.977 25.688 153.913 22.88 153.913 19.424C153.913 15.968 155.977 13.16 159.433 13.16C161.017 13.16 162.313 13.856 162.985 14.744V13.4H165.865V24.728ZM163.033 19.304C163.033 17 161.785 15.68 159.985 15.68C157.993 15.68 156.817 17.072 156.817 19.424C156.817 21.752 157.993 23.168 159.985 23.168C161.785 23.168 163.033 21.848 163.033 19.592V19.304ZM168.907 26V13.4H171.787V14.744C172.507 13.904 173.635 13.16 175.267 13.16C177.907 13.16 179.491 14.984 179.491 17.696V26H176.611V18.536C176.611 16.976 175.987 15.848 174.403 15.848C173.107 15.848 171.787 16.808 171.787 18.608V26H168.907ZM200.383 11.456H194.839V26H191.767V11.456H186.223V8.768H200.383V11.456ZM204.703 26.264C201.103 26.264 198.583 23.6 198.583 19.712C198.583 16.016 201.079 13.16 204.583 13.16C208.231 13.16 210.175 15.92 210.175 19.376V20.336H201.343C201.559 22.496 202.855 23.816 204.703 23.816C206.119 23.816 207.247 23.096 207.631 21.8L210.103 22.736C209.215 24.944 207.223 26.264 204.703 26.264ZM204.559 15.584C203.071 15.584 201.919 16.472 201.487 18.176H207.271C207.247 16.784 206.383 15.584 204.559 15.584ZM215.907 26.216C213.507 26.216 211.659 24.752 211.659 22.496C211.659 20.096 213.459 19.04 215.883 18.536L219.363 17.816V17.6C219.363 16.4 218.739 15.656 217.203 15.656C215.835 15.656 215.115 16.28 214.779 17.504L212.067 16.88C212.691 14.792 214.539 13.16 217.323 13.16C220.347 13.16 222.171 14.6 222.171 17.504V22.928C222.171 23.648 222.483 23.864 223.275 23.768V26C221.187 26.24 220.083 25.832 219.651 24.8C218.859 25.688 217.539 26.216 215.907 26.216ZM219.363 21.56V20.024L216.651 20.6C215.427 20.864 214.515 21.248 214.515 22.376C214.515 23.36 215.235 23.912 216.339 23.912C217.875 23.912 219.363 23.096 219.363 21.56ZM228.201 18.608V26H225.321V13.4H228.201V14.744C228.897 13.904 229.977 13.16 231.657 13.16C233.169 13.16 234.297 13.832 234.993 14.912C235.761 14.096 236.961 13.16 238.905 13.16C241.497 13.16 243.177 14.984 243.177 17.696V26H240.297V18.536C240.297 16.976 239.721 15.848 238.185 15.848C236.961 15.848 235.689 16.808 235.689 18.608V26H232.809V18.536C232.809 16.976 232.233 15.848 230.697 15.848C229.473 15.848 228.201 16.808 228.201 18.608Z" fill="black"/>
</svg>
